<svg width="264" height="172" viewBox="0 0 264 172" fill="none" xmlns="http://www.w3.org/2000/svg">
<g opacity="0.3">
<path fill-rule="evenodd" clip-rule="evenodd" d="M86.1326 62.3515C84.4383 64.5058 81.7274 66.2049 79.0165 65.9622C78.6777 63.0494 80.0049 59.9545 81.558 58.043C83.2523 55.828 86.2173 54.2503 88.6176 54.1289C88.9 57.1631 87.7987 60.1366 86.1326 62.3515ZM88.5891 66.5385C86.2008 66.3908 84.0217 67.3103 82.2615 68.0529C81.1288 68.5308 80.1696 68.9355 79.4398 68.9355C78.6209 68.9355 77.6221 68.5092 76.5007 68.0305C75.0313 67.4033 73.3513 66.6862 71.5896 66.7206C67.5515 66.7813 63.7958 69.239 61.7344 73.153C57.4986 80.9812 60.6331 92.5718 64.7276 98.9436C66.7326 102.099 69.1328 105.558 72.2955 105.437C73.6869 105.38 74.6878 104.924 75.7236 104.452C76.9162 103.908 78.155 103.343 80.0893 103.343C81.9566 103.343 83.1412 103.893 84.2784 104.421C85.3597 104.923 86.3981 105.406 87.9396 105.376C91.2152 105.315 93.2767 102.22 95.2816 99.0649C97.4452 95.6782 98.396 92.3729 98.5403 91.8713L98.5572 91.8132C98.5538 91.8095 98.527 91.7964 98.4799 91.7732C97.7566 91.4174 92.2284 88.6981 92.1754 81.406C92.1221 75.2854 96.5602 72.1843 97.2588 71.6961C97.3013 71.6664 97.33 71.6464 97.343 71.636C94.5191 67.1454 90.114 66.6599 88.5891 66.5385ZM111.265 105.042V57.7395H127.784C136.312 57.7395 142.27 64.0506 142.27 73.2745C142.27 82.4984 136.199 88.8701 127.558 88.8701H118.098V105.042H111.265ZM118.098 63.9295H125.976C131.906 63.9295 135.295 67.3278 135.295 73.3051C135.295 79.2825 131.906 82.7111 125.948 82.7111H118.098V63.9295ZM164.833 99.3683C163.026 103.07 159.044 105.406 154.752 105.406C148.399 105.406 143.965 101.34 143.965 95.2114C143.965 89.1431 148.257 85.6538 156.192 85.138L164.72 84.5918V81.9824C164.72 78.129 162.377 76.0354 158.197 76.0354C154.752 76.0354 152.239 77.947 151.731 80.8598H145.575C145.772 74.7308 151.138 70.2705 158.395 70.2705C166.217 70.2705 171.3 74.6701 171.3 81.497V105.042H164.974V99.3683H164.833ZM156.587 99.7934C152.945 99.7934 150.629 97.9122 150.629 95.0297C150.629 92.0563 152.86 90.3268 157.124 90.0537L164.72 89.5379V92.208C164.72 96.6379 161.218 99.7934 156.587 99.7934ZM192.281 106.893C189.542 115.177 186.407 117.907 179.743 117.907C179.235 117.907 177.54 117.847 177.145 117.725V112.051C177.569 112.112 178.613 112.173 179.15 112.173C182.171 112.173 183.866 110.807 184.91 107.257L185.532 105.164L173.954 70.7258H181.098L189.146 98.6706H189.287L197.335 70.7258H204.282L192.281 106.893Z" fill="black"/>
</g>
</svg>
