<svg width="256" height="166" viewBox="0 0 256 166" fill="none" xmlns="http://www.w3.org/2000/svg">
<g opacity="0.3">
<path d="M42.1157 59.1172L28.9033 97.8294H36.6656L40.3981 86.5328H51.1331L54.9647 97.8294H62.8921L49.6798 59.1172H42.1157ZM49.2834 80.1248H42.3469L45.2206 71.6029C45.4188 71.0083 45.617 70.4468 45.7821 69.8522C45.9803 70.4468 46.1455 71.0413 46.3767 71.6359L49.2834 80.1248Z" fill="#1A1A1A"/>
<path d="M75.9732 80.2379C72.4059 78.8176 72.0095 78.157 72.0095 77.133C72.0095 75.8448 73.0995 75.019 74.8502 75.019C76.9642 75.019 78.5827 75.8448 79.3754 76.3403L80.8948 77.2982L82.9097 71.1544L82.0179 70.5599C80.2672 69.4038 77.6248 68.7432 74.9493 68.7432C68.9707 68.7432 64.6436 72.5087 64.6436 77.7276C64.6436 82.517 68.8716 85.0604 72.4389 86.3486C75.9732 87.6699 76.2705 88.5947 76.2705 89.7178C76.2705 91.8318 74.0244 92.1621 72.7362 92.1621C70.6883 92.1621 68.4752 91.2702 67.22 90.5436L65.7006 89.6517L63.7188 95.9276L64.6766 96.4891C66.8567 97.7773 69.7304 98.504 72.6371 98.504C79.2103 98.504 83.6364 94.8045 83.6364 89.3214C83.6364 83.7392 79.2433 81.4601 75.9732 80.2379Z" fill="#1A1A1A"/>
<path d="M95.2747 62.6133L87.8758 64.8594V69.2855H83.9121V75.6605H87.9089V88.3114C87.9089 91.8457 88.6355 94.356 90.0889 96.0406C91.5092 97.6261 93.6893 98.4849 96.1666 98.4849C98.4127 98.4849 100.031 98.0225 100.791 97.7582L101.782 97.3949L101.385 90.9869L99.7009 91.5154C99.1724 91.6475 98.6109 91.7796 97.3887 91.7796C96.4969 91.7796 95.2747 91.7796 95.2747 88.1792V75.6605H101.98V69.2855H95.3078L95.2747 62.6133Z" fill="#1A1A1A"/>
<path d="M120.007 69.0074L118.653 68.8423C118.257 68.7762 117.86 68.7432 117.332 68.7432C114.987 68.7432 112.84 69.7011 111.188 71.3856L111.122 69.2717H104.186L104.285 70.7581C104.417 72.9381 104.516 75.4815 104.516 78.7185V97.8765H112.014V82.7153C112.014 81.9886 112.08 81.2949 112.146 80.7664C112.708 77.7936 114.557 75.9439 117.035 75.9439C117.629 75.9439 117.992 75.9439 118.323 76.01L120.007 76.3733V69.0074Z" fill="#1A1A1A"/>
<path d="M133.682 68.7432C125.325 68.7432 119.479 74.9199 119.479 83.8053C119.479 92.4263 125.127 98.471 133.219 98.471C140.09 98.471 147.456 93.7476 147.456 83.3759C147.522 74.7548 141.84 68.7432 133.682 68.7432ZM139.925 83.508C139.925 88.4956 137.216 92.129 133.517 92.129C129.817 92.129 127.142 88.5287 127.142 83.6401C127.142 80.4691 128.529 75.0851 133.649 75.0851C138.603 75.0521 139.925 80.5682 139.925 83.508Z" fill="#1A1A1A"/>
<path d="M172.053 62.134C169.576 59.9209 165.876 58.7979 161.054 58.7979C157.817 58.7979 154.745 59.0291 151.937 59.5245L150.781 59.7227V97.8074H158.213V83.6371C158.973 83.7032 159.766 83.7362 160.525 83.7362C165.546 83.7362 169.807 82.1838 172.516 79.3761C174.63 77.2291 175.687 74.3224 175.687 70.722C175.654 67.2538 174.398 64.2149 172.053 62.134ZM168.222 70.9532C168.222 76.3703 163.465 77.1631 160.624 77.1631C159.667 77.1631 158.874 77.13 158.18 77.0309V65.404C158.907 65.3049 159.898 65.2719 161.153 65.2719C164.39 65.3049 168.222 66.2959 168.222 70.9532Z" fill="#1A1A1A"/>
<path d="M198.462 90.2793V80.6343C198.462 72.9381 194.465 68.7432 187.264 68.7432C183.928 68.7432 180.427 69.668 177.983 71.1875L177.058 71.782L179.073 77.7276L180.625 76.6706C182.178 75.6136 184.424 74.986 186.637 74.986C188.123 74.953 189.246 75.3163 189.973 76.043C190.567 76.6375 190.931 77.5294 191.063 78.6524C185.216 78.8176 180.922 80.2379 178.346 82.8143C176.529 84.598 175.604 86.9102 175.604 89.6517C175.604 94.0118 178.775 98.471 184.886 98.471C187.496 98.471 189.94 97.6452 191.856 96.1588L192.054 97.8434H199.156L198.924 96.2249C198.561 94.6724 198.462 92.6575 198.462 90.2793ZM185.976 92.1951C184.853 92.1951 183.003 91.7987 183.003 89.1232C183.003 88.0993 183.301 87.3065 183.961 86.6459C184.853 85.7871 186.769 84.7962 191.129 84.6971V87.769C191.129 88.0002 191.096 88.3965 190.997 88.8259C190.435 90.3784 188.817 92.1951 185.976 92.1951Z" fill="#1A1A1A"/>
<path d="M219.13 69.3192L213.713 85.4052C213.581 85.8016 213.449 86.231 213.317 86.6274C213.185 86.231 213.053 85.8346 212.887 85.4713L206.975 69.3192H198.783L209.023 94.9842L209.056 95.0502C209.221 95.3806 209.287 95.5787 209.287 95.6448C209.221 95.7769 209.122 96.0412 209.056 96.2063C208.164 98.1221 206.843 99.8728 205.522 100.93L205.488 100.963C204.002 102.218 202.45 102.813 201.855 102.978L200.534 103.407L202.45 109.815L203.672 109.584C204.431 109.452 207.074 108.824 210.113 106.281C213.746 103.077 216.157 97.9239 219.328 89.5671L227.091 69.2861L219.13 69.3192Z" fill="#1A1A1A"/>
<path d="M56.3812 69.8144C61.2037 64.8928 69.3954 61.9531 78.2807 61.9531C81.7489 61.9531 85.1181 62.3825 88.289 63.2743L88.5533 63.3404L94.2677 61.6228L91.6912 60.6649C86.8357 58.8151 81.2204 57.8242 75.473 57.8242C67.1162 57.8242 59.3539 59.8391 53.5075 63.5055L52.8799 63.9019L55.2911 70.9375L56.3812 69.8144Z" fill="#1A1A1A"/>
</g>
</svg>
