<svg width="704" height="1058" viewBox="0 0 704 1058" fill="none" xmlns="http://www.w3.org/2000/svg">
<mask id="mask0_677_10504" style="mask-type:alpha" maskUnits="userSpaceOnUse" x="0" y="0" width="704" height="1058">
<rect width="704" height="1058" rx="64" fill="#8E7FF0"/>
</mask>
<g mask="url(#mask0_677_10504)">
<g style="mix-blend-mode:soft-light" opacity="0.15">
<path d="M658.576 1592.09C544.431 1533.31 437.502 1479.03 345.491 1424.41C253.476 1369.79 176.458 1314.89 122.11 1254.93C67.7777 1194.98 36.1298 1130 34.781 1055.2C33.4321 980.375 62.3928 895.581 129.572 795.996C163.202 746.142 190.497 706.75 213.41 676.432C236.333 646.1 254.822 624.916 270.836 611.431C286.848 597.949 300.214 592.306 312.935 592.727C325.708 593.15 338.181 599.69 352.331 611.36C408.851 657.976 489.469 784.383 717.854 901.978C832.07 960.788 972.477 1011.87 1114.56 1061.64C1256.68 1111.42 1400.47 1159.87 1521.59 1213.44C1642.74 1267.02 1741 1325.63 1792.21 1395.62C1817.79 1430.59 1831.62 1468.38 1830.71 1509.8C1829.81 1551.24 1814.16 1596.4 1780.62 1646.12C1713.46 1745.67 1638.33 1806.66 1556.35 1838.57C1474.36 1870.48 1385.37 1873.37 1290.41 1856.47C1100.4 1822.64 886.912 1709.66 658.576 1592.09Z" stroke="#1A1A1A" stroke-width="2.41377"/>
<path d="M624.987 1568.22C518.588 1499.24 418.822 1435.38 333.929 1372.58C249.034 1309.78 179.085 1248.08 132.292 1183.43C85.5125 1118.81 61.8986 1051.27 69.6028 976.76C77.3087 902.231 116.361 820.585 195.205 727.757C234.676 681.286 266.58 644.634 293.031 616.6C319.494 588.553 340.441 569.194 357.996 557.262C375.549 545.333 389.524 540.955 402.122 542.548C414.772 544.147 426.383 551.802 439.043 564.713C489.61 616.284 554.492 749.423 767.381 887.439C873.847 956.461 1007.29 1020.22 1142.56 1082.82C1277.87 1145.44 1414.99 1206.89 1528.96 1271.34C1642.95 1335.8 1733.57 1403.15 1776.03 1477.47C1797.25 1514.6 1806.43 1553.46 1800.52 1594.57C1794.61 1635.69 1773.58 1679.16 1734.22 1725.5C1655.4 1818.3 1573.31 1872.01 1487.93 1896.18C1402.54 1920.34 1313.7 1915.01 1221.32 1889.43C1036.46 1838.26 837.83 1706.2 624.987 1568.22Z" stroke="#1A1A1A" stroke-width="2.41377"/>
<path d="M602.142 1548.67C502.232 1472.65 408.476 1402.19 329.454 1333.79C250.43 1265.38 186.208 1199.1 145.335 1131.46C104.473 1063.84 86.9657 994.904 101.305 921.144C115.647 847.368 161.875 768.633 248.774 681.465C292.277 637.829 327.359 603.465 356.235 577.32C385.123 551.164 407.737 533.291 426.305 522.593C444.871 511.897 459.194 508.486 471.611 510.932C484.078 513.389 494.969 521.812 506.436 535.547C552.24 590.408 605.029 727.568 804.936 879.683C904.91 955.756 1032.25 1028.42 1161.51 1100.06C1290.81 1171.71 1422.03 1242.33 1529.89 1314.35C1637.77 1386.39 1722.1 1459.71 1757.79 1536.71C1775.62 1575.17 1781.3 1614.54 1771.73 1655.12C1762.16 1695.71 1737.32 1737.61 1693.94 1781.13C1607.07 1868.27 1520.42 1916.22 1433.14 1934.49C1345.86 1952.76 1257.76 1941.38 1167.95 1909.58C988.228 1845.96 802.006 1700.75 602.142 1548.67Z" stroke="#1A1A1A" stroke-width="2.41377"/>
<path d="M583.745 1530.45C489.974 1448.68 401.911 1372.82 328.388 1299.89C254.863 1226.95 195.942 1157.02 160.42 1087.11C124.908 1017.22 112.799 947.405 132.838 874.665C152.881 801.909 205.124 726.098 298.598 644.286C345.391 603.331 383.064 571.126 413.905 546.754C444.759 522.372 468.711 505.883 488.069 496.311C507.424 486.74 521.98 484.186 534.177 487.364C546.422 490.554 556.632 499.602 567.005 513.985C608.438 571.435 650.447 711.412 838.071 875.035C931.902 956.864 1053.3 1036.92 1176.7 1116.06C1300.13 1195.21 1425.55 1273.45 1527.56 1351.71C1629.6 1429.98 1708.03 1508.14 1737.65 1587.07C1752.45 1626.5 1755.06 1666.11 1742.36 1706.03C1729.66 1745.96 1701.62 1786.3 1654.95 1827.14C1561.51 1908.92 1471.34 1951.63 1382.84 1964.68C1294.33 1977.73 1207.33 1961.15 1120.19 1924.09C945.833 1849.95 771.328 1694.04 583.745 1530.45Z" stroke="#1A1A1A" stroke-width="2.41377"/>
<path d="M566.778 1511.15C479.591 1423.99 397.64 1343.07 329.966 1265.94C262.29 1188.81 208.952 1115.53 178.956 1043.68C148.969 971.843 142.325 901.466 167.981 830.085C193.644 758.688 251.669 686.155 351.298 610.088C401.172 572.009 441.266 542.118 473.933 519.636C506.615 497.144 531.796 482.116 551.855 473.716C571.913 465.317 586.634 463.635 598.555 467.529C610.521 471.439 620.001 481.071 629.23 496.037C666.092 555.815 697.106 697.966 871.554 872.362C958.796 959.578 1073.68 1046.66 1190.63 1132.95C1307.61 1219.26 1426.65 1304.77 1522.33 1388.91C1618.04 1473.07 1690.2 1555.7 1713.61 1636.21C1725.3 1676.43 1724.82 1716.1 1709.04 1755.18C1693.26 1794.26 1662.14 1832.84 1612.4 1870.81C1512.81 1946.85 1419.52 1984.1 1330.21 1991.86C1240.89 1999.62 1155.38 1977.9 1071.33 1935.76C903.148 1851.43 741.188 1685.51 566.778 1511.15Z" stroke="#1A1A1A" stroke-width="2.41377"/>
<path d="M553.635 1494.08C472.329 1402.69 395.839 1317.79 333.354 1237.38C270.867 1156.98 222.441 1081.14 197.224 1007.9C172.015 934.683 170.013 864.089 200.325 794.114C230.645 724.123 293.349 654.625 397.822 583.687C450.119 548.176 492.114 520.349 526.207 499.545C560.315 478.732 586.444 464.993 607.024 457.615C627.603 450.237 642.411 449.297 654.055 453.784C665.741 458.287 674.572 468.377 682.8 483.781C715.665 545.31 737.273 688.787 899.955 871.659C981.313 963.114 1090.28 1055.83 1201.35 1147.85C1312.46 1239.89 1425.68 1331.24 1515.66 1420.05C1605.67 1508.87 1672.27 1594.99 1690.34 1676.54C1699.37 1717.28 1696.28 1756.86 1677.95 1795.08C1659.63 1833.31 1626.02 1870.26 1573.86 1905.68C1469.42 1976.59 1373.83 2009.09 1284.16 2012.35C1194.48 2015.61 1110.54 1989.63 1029.4 1943.34C867.052 1850.7 716.281 1676.92 553.635 1494.08Z" stroke="#1A1A1A" stroke-width="2.41377"/>
<path d="M538.919 1472.02C465.286 1375.79 395.926 1286.34 340.168 1202.24C284.407 1118.15 242.298 1039.49 223.129 964.864C203.965 890.261 207.733 819.722 243.684 751.815C279.644 683.891 347.867 618.478 457.868 554.234C512.933 522.074 557.093 496.935 592.799 478.31C628.521 459.676 655.706 447.601 676.838 441.524C697.97 435.446 712.818 435.433 724.064 440.634C735.35 445.853 743.331 456.465 750.28 472.341C778.035 535.759 787.87 680.221 935.202 872.77C1008.88 969.065 1110 1068.33 1213.28 1167.05C1316.58 1265.78 1422.05 1363.96 1504.55 1458.14C1587.07 1552.35 1646.47 1642.41 1657.83 1724.87C1663.51 1766.07 1657.19 1805.36 1635.79 1842.34C1614.39 1879.33 1577.85 1914.09 1522.93 1946.16C1412.96 2010.39 1314.96 2036.84 1225.25 2034.5C1135.53 2032.16 1053.92 2001.02 976.778 1949.79C822.409 1847.27 686.218 1664.53 538.919 1472.02Z" stroke="#1A1A1A" stroke-width="2.41377"/>
<path d="M524.884 1446.82C460.104 1345.84 398.977 1251.92 350.929 1164.27C302.88 1076.62 267.953 995.32 255.533 919.613C243.117 843.93 253.196 773.867 295.125 708.628C337.065 643.372 410.945 582.825 526.37 526.304C584.149 498.011 630.427 475.972 667.694 459.846C704.976 443.714 733.163 433.535 754.776 428.923C776.391 424.309 791.196 425.313 801.939 431.266C812.718 437.239 819.723 448.361 825.227 464.664C847.21 529.782 844.065 674.479 973.683 876.52C1038.51 977.561 1130.41 1083.45 1224.52 1188.92C1318.66 1294.42 1415 1399.51 1488.8 1499.05C1562.63 1598.62 1613.76 1692.46 1617.7 1775.45C1619.66 1816.91 1609.85 1855.64 1585.2 1891.04C1560.54 1926.46 1520.99 1958.61 1463.36 1986.83C1347.98 2043.33 1247.9 2063 1158.67 2054.53C1069.44 2046.06 990.877 2009.43 918.563 1953.08C773.862 1840.31 654.473 1648.81 524.884 1446.82Z" stroke="#1A1A1A" stroke-width="2.41377"/>
<path d="M512.893 1420.08C457.596 1314.89 405.295 1216.98 365.452 1126.25C325.609 1035.51 298.263 952.026 292.837 875.694C287.412 799.388 303.894 730.258 351.681 668.167C399.481 606.059 478.686 550.887 598.933 502.64C659.125 478.489 707.279 459.765 745.907 446.304C784.551 432.837 813.583 424.667 835.552 421.584C857.525 418.5 872.191 420.54 882.351 427.226C892.543 433.933 898.502 445.505 902.49 462.14C918.42 528.585 901.996 672.601 1012.64 883.079C1067.97 988.341 1149.86 1100.33 1233.97 1212.06C1318.12 1323.82 1404.49 1435.33 1468.92 1539.72C1533.36 1644.14 1575.71 1741.26 1572.01 1824.25C1570.16 1865.71 1556.82 1903.63 1528.99 1937.2C1501.16 1970.77 1458.78 2000.05 1398.75 2024.14C1278.54 2072.37 1176.98 2084.96 1088.81 2070.26C1000.64 2055.56 925.7 2013.54 858.798 1952.3C724.924 1829.75 623.51 1630.51 512.893 1420.08Z" stroke="#1A1A1A" stroke-width="2.41377"/>
<path d="M504.084 1394.88C457.801 1286.42 413.891 1185.42 381.802 1092.37C349.713 999.315 329.477 914.3 330.497 837.829C331.517 761.383 353.779 693.501 406.67 634.651C459.575 575.785 543.217 525.854 667.206 485.471C729.269 465.257 778.87 449.68 818.528 438.74C858.202 427.796 887.845 421.515 910.016 419.853C932.193 418.191 946.649 421.169 956.217 428.49C965.812 435.831 970.778 447.751 973.354 464.596C983.641 531.881 955.127 674.455 1047.74 891.48C1094.05 1000.02 1166.27 1116.97 1240.75 1233.81C1315.25 1350.68 1391.99 1467.43 1447.44 1575.69C1502.91 1683.97 1536.96 1783.55 1526.28 1866.07C1520.94 1907.3 1504.44 1944.26 1473.86 1975.94C1443.28 2007.63 1398.55 2034.11 1336.64 2054.27C1212.69 2094.64 1110.34 2100.67 1023.65 2080.34C936.955 2060 865.76 2013.28 804.202 1947.9C681.019 1817.08 596.67 1611.86 504.084 1394.88Z" stroke="#1A1A1A" stroke-width="2.41377"/>
<path d="M497.042 1367.4C460.674 1256.09 426 1152.38 402.394 1057.41C378.788 962.442 366.274 876.301 374.181 800.139C382.084 724.003 410.39 657.863 468.42 602.831C526.466 547.784 614.35 503.759 741.595 472.026C805.287 456.142 856.139 444.025 896.66 435.846C937.197 427.663 967.315 423.439 989.569 423.307C1011.83 423.175 1025.97 427.14 1034.85 435.094C1043.75 443.068 1047.63 455.288 1048.68 472.257C1052.87 540.034 1011.6 680.213 1084.37 902.935C1120.76 1014.32 1182.23 1135.87 1245.95 1257.47C1309.68 1379.11 1375.67 1500.78 1421.2 1612.51C1466.74 1724.27 1491.71 1825.87 1473.63 1907.4C1464.6 1948.13 1444.82 1983.84 1411.48 2013.33C1378.13 2042.82 1331.15 2066.14 1267.61 2081.98C1140.41 2113.7 1037.83 2112.67 953.236 2086.44C868.644 2060.21 801.88 2008.74 746.404 1939.33C635.392 1800.45 569.794 1590.07 497.042 1367.4Z" stroke="#1A1A1A" stroke-width="2.41377"/>
<path d="M492.419 1338.83C466.44 1225.32 441.449 1119.51 426.683 1023.19C411.916 926.868 407.39 840.128 422.298 764.773C437.2 689.444 471.516 625.513 534.436 574.746C597.375 523.964 689.038 486.271 818.799 463.603C883.75 452.256 935.555 443.759 976.699 438.461C1017.86 433.16 1048.27 431.07 1070.47 432.506C1092.67 433.942 1106.41 438.892 1114.52 447.444C1122.65 456.015 1125.39 468.463 1124.87 485.449C1122.79 553.296 1068.72 690.119 1120.71 917.243C1146.7 1030.83 1196.75 1156.32 1249.05 1282.01C1301.35 1407.73 1355.9 1533.66 1390.97 1648.23C1426.05 1762.83 1441.56 1865.86 1416.02 1945.85C1403.25 1985.81 1380.24 2020.01 1344.29 2047.05C1308.33 2074.1 1259.35 2094.03 1194.55 2105.35C1064.83 2128.02 962.68 2119.76 880.779 2087.66C798.881 2055.55 737.086 1999.55 688.196 1926.46C590.361 1780.21 544.389 1565.9 492.419 1338.83Z" stroke="#1A1A1A" stroke-width="2.41377"/>
<path d="M490.507 1312.3C474.252 1197.42 458.328 1090.27 451.793 993.262C445.258 896.248 448.121 809.456 469.394 735.279C490.66 661.128 530.316 599.601 597.381 553.057C664.466 506.499 759.084 474.859 890.417 460.674C956.152 453.575 1008.54 448.464 1050.02 445.85C1091.52 443.235 1122.02 443.125 1144.04 445.998C1166.06 448.872 1179.34 454.701 1186.7 463.754C1194.08 472.826 1195.75 485.412 1193.79 502.316C1185.95 569.836 1120.39 702.777 1152.92 932.65C1169.19 1047.61 1208.43 1176 1249.89 1304.74C1291.36 1433.51 1335.05 1562.63 1360.27 1679.16C1385.51 1795.72 1392.22 1899.47 1359.95 1977.57C1343.82 2016.59 1317.97 2049.21 1279.81 2073.84C1241.65 2098.48 1191.11 2115.18 1125.53 2122.27C994.234 2136.45 893.063 2121.58 814.116 2084.25C735.173 2046.92 678.312 1987.06 635.773 1911.01C550.646 1758.81 523.025 1542.11 490.507 1312.3Z" stroke="#1A1A1A" stroke-width="2.41377"/>
<path d="M490.975 1283.69C485.284 1168.04 479.215 1060.12 481.578 962.968C483.942 865.81 494.739 779.498 522.732 707.046C550.715 634.62 595.874 576.06 666.984 534.348C738.118 492.624 835.332 467.694 967.544 462.728C1033.72 460.243 1086.4 458.808 1127.99 459.1C1169.6 459.392 1200.02 461.413 1221.7 465.815C1243.4 470.219 1256.1 476.957 1262.61 486.494C1269.13 496.048 1269.64 508.706 1266.14 525.418C1252.15 592.169 1174.63 720.113 1186.02 951.523C1191.71 1067.26 1219.08 1197.98 1248.63 1329.2C1278.18 1460.46 1309.91 1592.21 1324.4 1710.13C1338.89 1828.08 1336.08 1931.96 1296.76 2007.55C1277.12 2045.32 1248.37 2076.03 1208.08 2097.92C1167.78 2119.81 1115.86 2132.93 1049.84 2135.41C917.671 2140.38 818.18 2118.49 742.9 2075.77C667.625 2033.04 616.425 1969.4 580.983 1890.62C510.058 1732.97 502.358 1515.04 490.975 1283.69Z" stroke="#1A1A1A" stroke-width="2.41377"/>
<path d="M493.731 1257.37C497.83 1141.67 500.897 1033.66 511.464 936.927C522.032 840.186 540.094 754.807 574.132 684.36C608.158 613.94 658.141 558.453 732.584 521.441C807.051 484.418 906.109 465.826 1038.38 469.402C1104.59 471.192 1157.25 473.159 1198.7 476.133C1240.17 479.108 1270.34 483.086 1291.59 488.875C1312.86 494.668 1324.95 502.207 1330.64 512.136C1336.33 522.08 1335.77 534.733 1330.87 551.172C1311.28 616.834 1223.16 739.435 1214.96 970.951C1210.86 1086.74 1227.1 1218.87 1245.48 1351.64C1263.86 1484.44 1284.37 1617.88 1288.85 1736.41C1293.33 1854.97 1281.76 1958.38 1236.16 2031.24C1213.38 2067.63 1182.11 2096.4 1140.08 2115.63C1098.04 2134.87 1045.15 2144.61 979.103 2142.82C846.868 2139.24 749.495 2111 678.03 2063.54C606.571 2016.07 560.89 1949.3 532.203 1868.45C474.794 1706.66 485.532 1488.83 493.731 1257.37Z" stroke="#1A1A1A" stroke-width="2.41377"/>
<path d="M498.602 1231.75C512.303 1116.61 524.337 1009.08 542.914 913.27C561.492 817.456 586.599 733.45 626.401 665.349C666.187 597.274 720.649 545.103 797.972 512.911C875.321 480.707 975.664 468.445 1107.29 480.401C1173.17 486.385 1225.53 491.687 1266.63 497.282C1307.74 502.879 1337.5 508.761 1358.22 515.882C1378.95 523.01 1390.39 531.298 1395.23 541.56C1400.08 551.836 1398.48 564.415 1392.22 580.499C1367.23 644.741 1269.15 761.435 1241.74 991.822C1228.02 1107.04 1233.25 1239.86 1240.54 1373.44C1247.84 1507.06 1257.21 1641.45 1251.83 1759.95C1246.45 1878.48 1226.31 1980.88 1174.78 2050.65C1149.04 2085.5 1115.46 2112.21 1071.94 2128.73C1028.41 2145.25 974.856 2151.61 909.125 2145.64C777.534 2133.68 682.762 2099.34 615.428 2047.46C548.101 1995.59 508.089 1926.1 486.196 1843.65C442.383 1678.65 471.192 1462.07 498.602 1231.75Z" stroke="#1A1A1A" stroke-width="2.41377"/>
<path d="M506.565 1203.51C530.93 1089.72 552.925 983.408 580.353 889.232C607.781 795.054 640.619 713.108 686.622 648.059C732.607 583.036 791.74 534.904 871.803 508.307C951.894 481.7 1053.05 476.604 1183.13 497.866C1248.24 508.507 1299.93 517.508 1340.37 526.002C1380.83 534.5 1409.94 542.475 1429.93 551.044C1449.93 559.621 1460.56 568.695 1464.43 579.266C1468.31 589.848 1465.54 602.268 1457.81 617.854C1426.93 680.106 1318.32 789.456 1269.57 1017.14C1245.18 1131 1238.04 1263.75 1232.88 1397.41C1227.73 1531.11 1224.57 1665.71 1208.18 1783.44C1191.79 1901.2 1162.2 2001.83 1104.35 2067.7C1075.45 2100.61 1039.5 2124.85 994.59 2138.22C949.664 2151.6 895.693 2154.13 830.733 2143.51C700.687 2122.26 609.42 2081.3 547.133 2024.82C484.852 1968.33 451.438 1896.23 437.286 1812.5C408.966 1644.94 457.822 1431.13 506.565 1203.51Z" stroke="#1A1A1A" stroke-width="2.41377"/>
<path d="M519.32 1171.01C556.069 1059.79 589.638 955.81 627.281 864.368C664.925 772.924 706.61 694.112 759.543 633.22C812.456 572.353 876.601 529.399 959.217 509.636C1041.86 489.865 1143.11 493.271 1270.26 525.34C1333.9 541.389 1384.37 554.683 1423.69 566.528C1463.02 578.377 1491.13 588.755 1510.08 598.961C1529.06 609.176 1538.64 619.1 1541.33 629.946C1544.03 640.801 1539.91 652.929 1530.5 667.793C1492.93 727.166 1372.81 826.912 1299.28 1049.46C1262.5 1160.76 1240.81 1292.29 1221 1424.9C1201.19 1557.55 1183.26 1691.27 1154.02 1807.08C1124.77 1922.92 1084.26 2020.6 1019.46 2081.32C987.076 2111.66 948.629 2132.77 902.454 2142.32C856.265 2151.87 802.263 2149.86 738.767 2133.85C611.653 2101.79 525.304 2053.37 469.506 1991.92C413.714 1930.48 388.373 1855.91 383.482 1771.38C373.694 1602.22 445.805 1393.49 519.32 1171.01Z" stroke="#1A1A1A" stroke-width="2.41377"/>
<path d="M533.54 1143.26C580.967 1035.17 624.524 934.058 670.92 845.74C717.318 757.42 766.513 681.985 825.174 625.242C883.811 568.522 951.9 530.484 1036.14 516.921C1120.41 503.354 1220.96 514.261 1344.54 555.649C1406.38 576.363 1455.38 593.353 1493.4 608.073C1531.44 622.798 1558.44 635.224 1576.34 646.8C1594.25 658.387 1602.83 668.987 1604.46 679.992C1606.09 691.006 1600.81 702.782 1590 716.895C1546.78 773.262 1417.4 863.738 1322.5 1080.02C1275.04 1188.19 1240.64 1317.64 1208.01 1448.31C1175.37 1579.01 1144.51 1710.91 1104.12 1824.13C1063.71 1937.38 1013.86 2031.71 943.378 2087.4C908.168 2115.22 867.809 2133.4 820.871 2139.49C773.919 2145.58 720.306 2139.57 658.595 2118.9C535.055 2077.53 453.725 2022.87 404.102 1957.51C354.484 1892.15 336.484 1815.97 339.828 1731.38C343.173 1646.78 367.871 1553.81 403.614 1454.93C439.356 1356.05 486.113 1251.35 533.54 1143.26Z" stroke="#1A1A1A" stroke-width="2.41377"/>
<path d="M550.346 1116.75C608.075 1012.56 661.272 915.031 716.059 830.461C770.847 745.89 827.173 674.365 891.121 622.164C955.042 569.984 1026.57 537.117 1111.82 529.833C1197.11 522.546 1296.24 540.851 1415.36 591.228C1474.98 616.441 1522.15 636.993 1558.62 654.472C1595.1 671.957 1620.79 686.336 1637.5 699.194C1654.23 712.065 1661.75 723.262 1662.31 734.347C1662.87 745.441 1656.47 756.783 1644.32 770.045C1595.81 823.013 1458.12 903.598 1342.6 1112.09C1284.83 1216.36 1238.01 1342.81 1192.84 1470.58C1147.66 1598.4 1104.12 1727.55 1052.91 1837.38C1001.68 1947.24 942.864 2037.53 867.246 2087.81C829.467 2112.93 787.491 2128.06 740.131 2130.65C692.757 2133.25 639.917 2123.3 580.429 2098.14C461.341 2047.78 385.597 1987.31 342.484 1918.51C299.377 1849.71 288.822 1772.47 300.349 1688.44C311.879 1604.39 345.496 1513.58 390.69 1417.7C435.884 1321.82 492.617 1220.94 550.346 1116.75Z" stroke="#1A1A1A" stroke-width="2.41377"/>
<path d="M571.772 1089.1C640.376 990.063 703.755 897.292 767.333 817.556C830.913 737.819 894.631 671.197 963.873 624.436C1033.09 577.694 1107.82 550.8 1193.47 550.496C1279.16 550.192 1375.91 576.497 1489.13 636.363C1545.8 666.326 1590.57 690.632 1625.01 711.007C1659.46 731.389 1683.51 747.8 1698.77 761.964C1714.05 776.142 1720.35 787.904 1719.72 798.986C1719.09 810.076 1711.51 820.847 1698 833.06C1644.04 881.843 1498.35 950.856 1361.08 1149.02C1292.42 1248.13 1232.3 1370.21 1173.68 1493.75C1115.05 1617.33 1057.92 1742.36 995.196 1847.54C932.461 1952.74 864.258 2037.85 783.601 2081.74C743.305 2103.67 699.897 2115.32 652.467 2114.04C605.022 2112.76 553.474 2098.55 496.932 2068.66C383.741 2008.81 314.784 1942.42 279.206 1870.41C243.633 1798.4 241.371 1720.64 261.821 1637.91C282.276 1555.17 325.444 1467.49 380.679 1375.71C435.914 1283.93 503.17 1188.13 571.772 1089.1Z" stroke="#1A1A1A" stroke-width="2.41377"/>
<path d="M594.177 1065.13C672.322 971.652 744.642 884.014 815.871 809.378C887.102 734.74 957.173 673.178 1030.78 631.821C1104.36 590.48 1181.47 569.329 1266.84 575.495C1352.24 581.662 1446.02 615.174 1552.9 683.367C1606.39 717.496 1648.59 745.093 1680.88 767.992C1713.19 790.9 1735.52 809.065 1749.33 824.329C1763.15 839.607 1768.26 851.8 1766.53 862.794C1764.81 873.795 1756.19 883.953 1741.52 895.101C1682.94 939.626 1530.97 997.379 1374.6 1184.44C1296.39 1277.99 1224.42 1395.07 1153.8 1513.72C1083.16 1632.41 1013.87 1752.67 940.981 1852.71C868.072 1952.78 791.704 2032.42 707.005 2070.06C664.691 2088.87 620.292 2097.19 573.166 2092.34C526.025 2087.48 476.077 2069.43 422.705 2035.38C315.859 1967.2 253.728 1895.86 225.408 1821.43C197.092 1747 202.532 1669.36 231.09 1588.49C259.654 1507.6 311.334 1423.51 375.443 1336.25C439.551 1248.98 516.035 1158.61 594.177 1065.13Z" stroke="#1A1A1A" stroke-width="2.41377"/>
<path d="M615.528 1045.74C701.495 957.656 781.152 875.016 858.602 805.269C936.054 735.521 1011.22 678.736 1088.19 642.33C1165.11 605.939 1243.82 589.913 1328.42 601.667C1413.04 613.426 1503.68 653.003 1604.39 728.021C1654.79 765.567 1694.49 795.858 1724.72 820.813C1754.97 845.778 1775.67 865.358 1788.13 881.485C1800.59 897.627 1804.64 910.121 1801.98 920.971C1799.31 931.829 1789.84 941.394 1774.25 951.546C1712 992.099 1555.49 1039.71 1383.47 1215.96C1297.44 1304.11 1215.6 1416.14 1134.96 1529.81C1054.31 1643.53 974.869 1758.89 893.577 1853.86C812.263 1948.86 729.257 2023.26 641.558 2055.24C597.744 2071.21 552.755 2076.59 506.181 2068.66C459.592 2060.72 411.339 2039.44 361.049 2001.98C260.372 1926.98 204.555 1851.76 182.721 1775.68C160.889 1699.6 172.995 1622.54 208.432 1543.77C243.876 1464.98 302.646 1384.53 374.082 1301.72C445.518 1218.91 529.562 1133.82 615.528 1045.74Z" stroke="#1A1A1A" stroke-width="2.41377"/>
<path d="M645.014 1023.18C740.23 942.68 828.569 867.075 913.3 804.119C998.033 741.162 1079.08 690.918 1159.67 661.109C1240.23 631.313 1320.34 621.938 1403.26 640.708C1486.21 659.484 1572.09 706.452 1664.12 789.541C1710.18 831.126 1746.39 864.595 1773.75 891.961C1801.12 919.338 1819.59 940.559 1830.22 957.652C1840.86 974.76 1843.52 987.534 1839.68 998.113C1835.84 1008.7 1825.36 1017.43 1808.73 1026.24C1742.32 1061.4 1581.32 1095.71 1390.8 1256.79C1295.51 1337.34 1201.78 1442.01 1109.07 1548.43C1016.34 1654.88 924.631 1763.08 833.314 1850.83C741.972 1938.6 651.2 2005.72 560.401 2030.22C515.038 2042.46 469.666 2044.05 424.175 2032.26C378.67 2020.47 332.969 1995.26 287.011 1953.76C195.008 1870.7 147.682 1791.16 134.278 1713.61C120.874 1636.06 141.361 1560.36 185.26 1484.91C273.111 1333.92 454.536 1184.21 645.014 1023.18Z" stroke="#1A1A1A" stroke-width="2.41377"/>
<path d="M673.794 1004.92C776.648 931.949 872.165 863.328 962.832 807.035C1053.5 750.741 1139.23 706.831 1222.48 683.246C1305.71 659.671 1386.44 656.407 1467.18 681.393C1547.95 706.388 1628.84 759.69 1712.27 849.444C1754.02 894.365 1786.77 930.453 1811.31 959.791C1835.85 989.141 1852.15 1011.68 1861.04 1029.51C1869.93 1047.36 1871.32 1060.29 1866.44 1070.54C1861.56 1080.8 1850.25 1088.7 1832.81 1096.21C1763.15 1126.21 1599.36 1148.18 1393.55 1294.2C1290.62 1367.22 1186.84 1464.39 1083.91 1563.38C980.951 1662.39 878.841 1763.23 779.15 1843.72C679.432 1924.23 582.331 1984.22 489.438 2001.74C443.03 2010.49 397.669 2008.64 353.523 1993.45C309.363 1978.25 266.341 1949.67 224.68 1904.85C141.278 1815.12 102.035 1732.3 96.3861 1654.02C90.738 1575.75 118.667 1501.88 169.897 1430.05C272.419 1286.29 468.037 1150.9 673.794 1004.92Z" stroke="#1A1A1A" stroke-width="2.41377"/>
<path d="M704.858 988.646C814.693 923.903 916.78 862.926 1012.79 813.856C1108.8 764.784 1198.64 727.667 1283.95 710.604C1369.24 693.547 1449.99 696.532 1527.88 727.655C1605.8 758.789 1680.98 818.129 1755 913.972C1792.05 961.942 1821.01 1000.42 1842.48 1031.54C1863.97 1062.67 1877.91 1086.38 1884.96 1104.82C1892.02 1123.29 1892.09 1136.27 1886.19 1146.1C1880.29 1155.95 1868.22 1162.95 1850.09 1169.09C1777.66 1193.59 1612.3 1202.82 1392.52 1332.37C1282.6 1397.16 1169.4 1485.93 1056.86 1576.58C944.285 1667.26 832.371 1759.81 724.925 1832.29C617.45 1904.79 514.657 1957.04 420.352 1967.32C373.237 1972.45 328.241 1967.11 285.807 1948.56C243.36 1930.01 203.4 1898.22 166.438 1850.36C92.4427 1754.55 61.734 1669.02 64.0279 1590.61C66.3216 1512.21 101.616 1440.8 159.916 1373.2C276.584 1237.91 485.137 1118.16 704.858 988.646Z" stroke="#1A1A1A" stroke-width="2.41377"/>
<path d="M740.153 973.823C856.566 918.546 964.857 866.371 1065.79 825.54C1166.73 784.708 1260.22 755.259 1347.02 745.396C1433.78 735.537 1513.83 745.25 1587.96 782.733C1662.12 820.228 1730.47 885.571 1793.66 987.153C1825.29 1038 1849.91 1078.71 1867.89 1111.48C1885.87 1144.26 1897.15 1169.03 1902.15 1187.98C1907.16 1206.94 1905.81 1219.87 1898.86 1229.17C1891.91 1238.48 1879.12 1244.44 1860.4 1249.04C1785.62 1267.38 1620 1262.76 1387.06 1373.37C1270.57 1428.69 1148.18 1507.6 1026.24 1588.44C904.259 1669.31 782.732 1752.1 667.85 1815.27C552.937 1878.47 444.895 1921.9 349.893 1924.26C302.43 1925.44 258.225 1916.36 218.015 1894.36C177.793 1872.35 141.495 1837.37 109.938 1786.65C46.7626 1685.09 25.5497 1597.4 36.4083 1519.54C47.2662 1441.69 90.2105 1373.55 155.639 1311.12C286.573 1186.2 507.273 1084.4 740.153 973.823Z" stroke="#1A1A1A" stroke-width="2.41377"/>
<path d="M775.509 962.4C897.248 916.713 1010.57 873.461 1115.38 840.915C1220.19 808.367 1316.39 786.557 1403.86 783.711C1491.29 780.866 1569.98 796.972 1639.85 840.252C1709.74 883.546 1770.92 954.102 1823.15 1060.33C1849.29 1113.5 1869.52 1156.02 1883.97 1190.1C1898.42 1224.18 1907.05 1249.75 1910.04 1269.02C1913.02 1288.3 1910.32 1301.06 1902.42 1309.76C1894.51 1318.48 1881.14 1323.4 1862.02 1326.47C1785.61 1338.73 1621.2 1320.82 1377.6 1412.23C1255.78 1457.95 1125.6 1526.69 995.664 1597.39C865.69 1668.11 735.961 1740.78 614.913 1794.46C493.833 1848.15 381.671 1882.72 286.819 1877.44C239.43 1874.79 196.369 1862.2 158.647 1837.06C120.915 1811.92 88.4555 1774.17 62.3748 1721.13C10.1607 1614.93 -1.72797 1525.91 17.2812 1449.26C36.2895 1372.61 86.2261 1308.21 157.953 1251.3C301.488 1137.42 531.974 1053.8 775.509 962.4Z" stroke="#1A1A1A" stroke-width="2.41377"/>
<path d="M817.378 952.858C943.956 918.654 1061.87 886.096 1170.03 863.397C1278.19 840.697 1376.49 827.879 1463.81 833.116C1551.11 838.351 1627.42 861.625 1691.66 911.106C1755.93 960.602 1808.24 1036.4 1847.34 1146.85C1866.91 1202.13 1881.89 1246.28 1892.14 1281.5C1902.39 1316.73 1907.89 1342.94 1908.52 1362.38C1909.16 1381.82 1904.94 1394.27 1896.03 1402.19C1887.1 1410.14 1873.21 1413.79 1853.81 1415.08C1776.35 1420.23 1615.03 1387.25 1361.75 1455.69C1235.09 1489.92 1097.33 1546.27 959.578 1604.59C821.786 1662.93 684 1723.23 557.141 1765.44C430.249 1807.67 314.531 1831.71 220.842 1817.7C174.035 1810.7 132.735 1794.21 98.264 1765.73C63.7837 1737.25 36.0678 1696.72 16.5431 1641.57C-22.5467 1531.16 -23.612 1441.54 4.55139 1367.07C32.7138 1292.61 90.1534 1233.17 168.358 1183.19C324.855 1083.19 564.162 1021.28 817.378 952.858Z" stroke="#1A1A1A" stroke-width="2.41377"/>
<path d="M855.668 947.631C985.382 924.038 1106.3 901.369 1216.43 887.708C1326.56 874.047 1425.81 869.407 1512.18 881.836C1598.52 894.261 1671.96 923.737 1730.57 978.303C1789.18 1032.88 1833.05 1112.66 1860.02 1225.84C1873.52 1282.5 1883.65 1327.69 1890.04 1363.59C1896.44 1399.51 1899.07 1426.06 1897.6 1445.46C1896.13 1464.86 1890.58 1476.9 1880.85 1484.06C1871.1 1491.23 1856.87 1493.72 1837.42 1493.4C1759.74 1492.13 1602.72 1445.97 1343.17 1493.18C1213.37 1516.79 1070.13 1561.5 926.682 1608.18C783.193 1654.87 639.496 1703.52 508.635 1735.06C377.739 1766.61 259.934 1780.98 168.176 1759.29C122.333 1748.46 83.0042 1728.63 51.7712 1697.43C20.5307 1666.23 -2.67243 1623.6 -16.139 1567.09C-43.1006 1453.94 -34.4595 1364.64 1.63728 1292.83C37.7335 1221.03 101.35 1166.6 184.617 1123.31C351.241 1036.68 596.182 994.827 855.668 947.631Z" stroke="#1A1A1A" stroke-width="2.41377"/>
<path d="M896.345 945.576C1028.1 933.367 1151 921.312 1262.14 917.283C1373.28 913.255 1472.57 917.26 1557.1 937.129C1641.6 956.993 1711.33 992.703 1763.43 1052.09C1815.54 1111.49 1850.11 1194.68 1864.07 1309.64C1871.06 1367.18 1876 1413.03 1878.27 1449.31C1880.54 1485.6 1880.14 1512.25 1876.47 1531.42C1872.8 1550.6 1865.91 1562.09 1855.41 1568.37C1844.89 1574.67 1830.43 1575.91 1811.12 1573.9C1733.96 1565.88 1582.98 1506.32 1319.35 1530.75C1187.5 1542.96 1039.89 1575.02 891.843 1609C743.753 1643 595.23 1678.93 461.427 1698.95C327.588 1718.97 208.725 1723.04 119.884 1693.49C75.4991 1678.73 38.6223 1655.57 11.0951 1621.82C-16.4381 1588.07 -34.6734 1543.63 -41.6421 1486.23C-55.5944 1371.31 -36.8349 1283.2 7.25228 1214.89C51.3396 1146.58 120.836 1097.95 208.621 1062.1C384.281 990.374 632.776 970 896.345 945.576Z" stroke="#1A1A1A" stroke-width="2.41377"/>
<path d="M928.488 946.456C1060.93 943.321 1184.54 939.733 1295.7 943.34C1406.86 946.948 1505.48 957.749 1587.97 983.356C1670.43 1008.96 1736.73 1049.34 1783.33 1112.11C1829.95 1174.9 1856.93 1260.2 1860.52 1375.76C1862.31 1433.61 1863.12 1479.65 1862.12 1515.98C1861.13 1552.31 1858.33 1578.85 1852.95 1597.71C1847.57 1616.57 1839.67 1627.56 1828.64 1633.1C1817.58 1638.65 1803.05 1638.9 1783.97 1635.57C1707.77 1622.29 1562.61 1552.55 1297.6 1558.82C1165.07 1561.96 1015.03 1583.79 864.386 1607.52C713.698 1631.25 562.405 1656.88 427.215 1667.66C291.989 1678.44 173.124 1674.35 87.2093 1638.79C44.2858 1621.03 9.60386 1595.42 -14.8045 1559.89C-39.218 1524.35 -53.4044 1478.8 -55.1935 1421.1C-58.7756 1305.58 -32.1577 1219.04 17.9302 1153.96C68.0193 1088.89 141.673 1045.17 232.41 1015.45C413.977 955.993 663.539 952.727 928.488 946.456Z" stroke="#1A1A1A" stroke-width="2.41377"/>
<path d="M958.057 949.227C1090.41 954.502 1213.99 958.764 1324.55 969.413C1435.12 980.063 1532.59 997.093 1612.73 1027.87C1692.85 1058.63 1755.62 1103.11 1796.88 1168.68C1838.16 1234.26 1857.98 1321.04 1851.95 1436.52C1848.93 1494.33 1845.91 1540.3 1841.9 1576.46C1837.89 1612.64 1832.89 1638.93 1825.96 1657.4C1819.03 1675.87 1810.23 1686.32 1798.77 1691.15C1787.27 1695.99 1772.76 1695.31 1754.01 1690.78C1679.1 1672.7 1540.13 1593.94 1275.3 1583.38C1142.86 1578.1 991.407 1590.36 839.185 1604.47C686.923 1618.58 533.899 1634.54 398.168 1636.72C262.403 1638.89 144.188 1627.27 61.4527 1586.36C20.1171 1565.92 -12.3449 1538.17 -33.7349 1501.19C-55.1293 1464.19 -65.4927 1417.87 -62.4818 1360.22C-56.4535 1244.77 -22.7138 1160.15 32.6491 1098.42C88.0138 1036.7 165.107 997.767 258.076 973.886C444.109 926.1 693.287 938.674 958.057 949.227Z" stroke="#1A1A1A" stroke-width="2.41377"/>
<path d="M984.114 953.266C1115.8 966.002 1238.81 977.231 1348.35 994.1C1457.9 1010.97 1553.91 1033.47 1631.61 1068.7C1709.28 1103.92 1768.64 1151.86 1804.96 1219.61C1841.3 1287.38 1854.66 1375.1 1840.1 1490C1832.81 1547.52 1826.4 1593.22 1819.72 1629.08C1813.04 1664.96 1806.11 1690.91 1797.83 1708.95C1789.55 1726.98 1780 1736.92 1768.2 1741.09C1756.37 1745.27 1741.93 1743.78 1723.55 1738.2C1650.14 1715.92 1517.29 1629.48 1253.79 1604C1122.02 1591.25 969.978 1594.93 817.031 1600.42C664.044 1605.9 510.157 1613.19 374.548 1607.7C238.905 1602.21 121.795 1583.93 42.2562 1538.44C2.51758 1515.7 -27.8249 1486.19 -46.4341 1448.07C-65.0469 1409.95 -71.9619 1363.14 -64.6931 1305.78C-50.1391 1190.92 -10.2115 1108.38 49.5997 1049.91C109.414 991.439 189.226 956.939 283.769 938.356C472.95 901.172 720.679 927.787 984.114 953.266Z" stroke="#1A1A1A" stroke-width="2.41377"/>
<path d="M1016.33 960.408C1146.4 982.437 1267.96 1002.35 1375.58 1026.93C1483.2 1051.51 1576.8 1080.74 1650.97 1121.36C1725.13 1161.98 1779.83 1213.96 1809.74 1284.07C1839.66 1354.19 1844.84 1442.56 1819.65 1556.05C1807.05 1612.86 1796.41 1657.96 1786.42 1693.23C1776.43 1728.51 1767.12 1753.88 1757.19 1771.27C1747.26 1788.66 1736.82 1797.89 1724.68 1801.21C1712.49 1804.54 1698.23 1802.02 1680.43 1795.16C1609.33 1767.75 1484.95 1672.18 1224.69 1628.1C1094.53 1606.06 942.653 1598.95 789.701 1593.57C636.709 1588.19 482.651 1584.55 347.999 1569.47C213.312 1554.38 98.283 1527.86 23.2297 1476.87C-14.2682 1451.4 -41.7689 1419.83 -56.7765 1380.52C-71.7866 1341.2 -74.3316 1294.06 -61.7597 1237.4C-36.5873 1123.96 10.8732 1044.52 75.9159 990.487C140.962 936.451 223.717 907.721 319.676 895.902C511.688 872.25 756.132 916.339 1016.33 960.408Z" stroke="#1A1A1A" stroke-width="2.41377"/>
<path d="M1059.01 973.786C1185.49 1008.25 1303.78 1039.79 1407.63 1074.62C1511.48 1109.45 1600.81 1147.54 1669.38 1195.09C1737.94 1242.62 1785.72 1299.57 1806.58 1372.14C1827.44 1444.72 1821.39 1533.05 1781.99 1643.4C1762.27 1698.64 1745.99 1742.44 1731.6 1776.53C1717.2 1810.63 1704.73 1834.94 1692.66 1851.26C1680.6 1867.58 1669.06 1875.74 1656.56 1877.87C1644.02 1880 1630.17 1876.12 1613.35 1867.58C1546.14 1833.47 1434.63 1726.47 1181.55 1657.51C1054.99 1623.02 904.941 1601.28 753.608 1581.15C602.237 1561.03 449.585 1542.52 317.668 1514.51C185.718 1486.5 74.7489 1449.03 6.60977 1391.1C-27.4339 1362.15 -50.7681 1328.12 -60.7064 1287.6C-70.6464 1247.08 -67.2075 1199.99 -47.5398 1144.89C-8.15933 1034.58 49.0666 960.215 120.55 912.801C192.038 865.382 277.922 844.825 374.792 842.351C568.622 837.401 805.986 904.843 1059.01 973.786Z" stroke="#1A1A1A" stroke-width="2.41377"/>
<path d="M1088.69 985.991C1211.61 1029.19 1326.62 1068.9 1426.95 1110.89C1527.27 1152.87 1612.82 1197.09 1676.82 1249.29C1740.8 1301.46 1783.21 1361.58 1797.35 1435.37C1811.48 1509.17 1797.36 1596.8 1747.98 1704.04C1723.25 1757.72 1703.01 1800.24 1685.54 1833.21C1668.07 1866.19 1653.41 1889.56 1639.88 1904.98C1626.36 1920.4 1614.11 1927.73 1601.46 1928.97C1588.76 1930.22 1575.31 1925.39 1559.32 1915.7C1495.46 1876.99 1394.11 1762.53 1148.17 1676.09C1025.17 1632.86 877.601 1600.68 728.599 1570.04C579.559 1539.38 429.094 1510.25 300.168 1473.11C171.209 1435.96 64.0298 1390.84 1.41849 1328.33C-29.8633 1297.09 -50.0028 1261.53 -56.1954 1220.45C-62.389 1179.37 -54.6448 1132.66 -29.9907 1079.12C19.3745 971.921 83.2322 901.802 158.831 859.541C234.436 817.277 321.929 802.795 418.715 807.107C612.378 815.734 842.799 899.566 1088.69 985.991Z" stroke="#1A1A1A" stroke-width="2.41377"/>
<path d="M1118.81 1001.15C1237.09 1053.31 1347.84 1101.4 1443.72 1150.67C1539.61 1199.94 1620.55 1250.34 1679.25 1307.09C1737.93 1363.82 1774.35 1426.86 1781.27 1501.44C1788.19 1576.02 1765.6 1662.28 1705.98 1765.48C1676.14 1817.14 1651.83 1857.99 1631.23 1889.55C1610.61 1921.12 1593.74 1943.31 1578.76 1957.68C1563.79 1972.04 1550.87 1978.44 1538.15 1978.74C1525.37 1979.04 1512.44 1973.22 1497.45 1962.38C1437.58 1919.08 1347.71 1797.52 1111.05 1693.16C992.7 1640.97 848.786 1597.97 703.297 1556.39C557.772 1514.8 410.678 1474.62 285.825 1428.05C160.939 1381.47 58.527 1328.57 2.21233 1261.64C-25.9235 1228.2 -42.5363 1191.28 -44.7167 1149.89C-46.8974 1108.49 -34.6454 1062.53 -4.88053 1011.01C54.7181 907.856 125.155 842.725 204.585 806.221C284.022 769.714 372.607 761.77 468.626 773.24C660.753 796.193 882.202 896.805 1118.81 1001.15Z" stroke="#1A1A1A" stroke-width="2.41377"/>
<path d="M1143.48 1015.94C1257.09 1075.51 1363.51 1130.55 1455.02 1185.8C1546.53 1241.06 1623.04 1296.5 1676.84 1356.84C1730.62 1417.17 1761.67 1482.37 1762.33 1557.18C1762.99 1632.01 1733.25 1716.6 1665.16 1815.71C1631.08 1865.33 1603.42 1904.53 1580.23 1934.68C1557.03 1964.85 1538.35 1985.91 1522.21 1999.28C1506.07 2012.65 1492.66 2018.2 1479.94 2017.69C1467.17 2017.18 1454.76 2010.55 1440.72 1998.78C1384.63 1951.77 1305.17 1824.8 1077.87 1705.61C964.2 1646 824.266 1593.93 682.644 1543.17C540.987 1492.4 397.646 1442.94 277.021 1388.53C156.365 1334.1 58.6511 1274.81 8.0845 1204.46C-17.1797 1169.31 -30.66 1131.43 -29.3728 1090.01C-28.0854 1048.58 -12.0225 1003.53 21.9714 954.048C90.038 854.972 165.733 794.511 248.004 763.176C330.282 731.837 419.295 729.569 514.098 747.138C703.793 782.294 916.235 896.775 1143.48 1015.94Z" stroke="#1A1A1A" stroke-width="2.41377"/>
<path d="M1173.79 1037.61C1280.35 1106.39 1380.27 1170.06 1465.32 1232.71C1550.36 1295.36 1620.46 1356.93 1667.41 1421.49C1714.34 1486.03 1738.12 1553.52 1730.59 1628.05C1723.06 1702.59 1684.21 1784.31 1605.59 1877.28C1566.23 1923.82 1534.41 1960.53 1508.03 1988.62C1481.63 2016.71 1460.73 2036.11 1443.2 2048.07C1425.68 2060.03 1411.72 2064.44 1399.11 2062.87C1386.46 2061.29 1374.83 2053.66 1362.14 2040.77C1311.45 1989.29 1246.25 1856.27 1033.03 1718.65C926.397 1649.82 792.801 1586.3 657.38 1523.95C521.926 1461.58 384.652 1400.38 270.532 1336.14C156.383 1271.89 65.603 1204.71 22.9639 1130.46C1.66048 1093.37 -7.6131 1054.53 -1.80057 1013.41C4.01294 972.276 24.9311 928.769 64.1828 882.353C142.777 789.414 224.741 735.55 310.063 711.228C395.393 686.903 484.246 692.079 576.692 717.484C761.672 768.319 960.617 900.013 1173.79 1037.61Z" stroke="#1A1A1A" stroke-width="2.41377"/>
<path d="M1199.87 1060.08C1298.97 1136.91 1391.97 1208.13 1470.26 1277.16C1548.56 1346.2 1612.07 1413 1652.23 1480.97C1692.37 1548.92 1709.14 1618 1694.02 1691.64C1678.9 1765.29 1631.83 1843.65 1544.01 1930.11C1500.05 1973.39 1464.6 2007.47 1435.45 2033.38C1406.29 2059.3 1383.48 2076.99 1364.8 2087.54C1346.12 2098.08 1331.77 2101.38 1319.38 2098.83C1306.94 2096.27 1296.13 2087.76 1284.81 2073.94C1239.59 2018.71 1188.26 1881.13 989.98 1727.4C890.818 1650.52 764.256 1576.82 635.758 1504.14C507.227 1431.44 376.766 1359.77 269.676 1286.87C162.559 1213.96 79.0179 1139.96 44.1471 1062.68C26.7251 1024.07 21.4614 984.665 31.4585 944.161C41.4574 903.65 66.7448 861.95 110.589 818.785C198.379 732.355 285.528 685.108 372.998 667.546C460.475 649.983 548.443 662.077 637.919 694.601C816.955 759.679 1001.63 906.384 1199.87 1060.08Z" stroke="#1A1A1A" stroke-width="2.41377"/>
<path d="M1222.92 1083.79C1314 1167.85 1399.56 1245.86 1470.69 1320.58C1541.82 1395.3 1598.45 1466.67 1631.69 1537.43C1664.92 1608.17 1674.76 1678.26 1652.37 1750.47C1629.98 1822.7 1575.3 1897.19 1479.21 1976.66C1431.1 2016.44 1392.4 2047.7 1360.78 2071.3C1329.15 2094.9 1304.67 2110.79 1285.01 2119.88C1265.35 2128.97 1250.72 2131.16 1238.63 2127.69C1226.5 2124.19 1216.58 2114.9 1206.68 2100.26C1167.13 2041.81 1129.68 1900.85 947.435 1732.65C856.295 1648.53 737.541 1565.5 616.759 1483.34C495.946 1401.16 373.11 1319.85 273.677 1239.1C174.218 1158.33 98.3564 1078.27 71.3054 998.634C57.7903 958.849 56.4664 919.192 70.4552 879.599C84.4465 840 113.787 800.376 161.761 760.703C257.818 681.265 349.339 640.812 438.227 629.959C527.121 619.104 613.551 637.831 699.452 677.025C871.336 755.45 1040.71 915.621 1222.92 1083.79Z" stroke="#1A1A1A" stroke-width="2.41377"/>
<path d="M1248.22 1115.66C1328.34 1207.85 1403.73 1293.5 1465.18 1374.51C1526.62 1455.53 1574.07 1531.83 1598.34 1605.32C1622.6 1678.78 1623.7 1749.39 1592.48 1819.06C1561.26 1888.75 1497.67 1957.63 1392.29 2027.53C1339.53 2062.53 1297.18 2089.94 1262.82 2110.41C1228.45 2130.88 1202.15 2144.36 1181.47 2151.54C1160.8 2158.72 1145.98 2159.51 1134.39 2154.91C1122.77 2150.29 1114.07 2140.11 1106.04 2124.63C1073.97 2062.78 1054.21 1919.1 893.898 1734.64C813.724 1642.39 705.962 1548.61 596.078 1455.5C486.166 1362.37 374.134 1269.91 285.299 1180.23C196.44 1090.52 130.955 1003.75 113.937 922.034C105.435 881.206 109.035 841.657 127.851 803.62C146.671 765.576 180.754 728.96 233.367 694.059C338.711 624.177 434.712 592.623 524.425 590.246C614.142 587.868 697.74 614.666 778.274 661.757C939.42 755.987 1087.94 931.242 1248.22 1115.66Z" stroke="#1A1A1A" stroke-width="2.41377"/>
<path d="M1264.58 1141.14C1335.82 1238.74 1402.96 1329.48 1456.63 1414.6C1510.3 1499.72 1550.46 1579.16 1567.78 1654.13C1585.1 1729.07 1579.59 1799.52 1541.97 1866.74C1504.34 1933.97 1434.52 1998.08 1322.96 2060.24C1267.11 2091.36 1222.34 2115.66 1186.19 2133.61C1150.01 2151.56 1122.54 2163.12 1101.26 2168.8C1079.98 2174.48 1065.14 2174.21 1054.02 2168.8C1042.87 2163.37 1035.15 2152.61 1028.6 2136.61C1002.41 2072.68 996.144 1928.07 853.598 1732.79C782.31 1635.13 683.669 1533.98 582.851 1433.34C482.007 1332.68 378.989 1232.54 298.83 1136.83C218.65 1041.08 161.491 949.933 152.166 867.275C147.507 825.978 154.791 786.819 177.099 750.249C199.412 713.672 236.803 679.609 292.504 648.575C404.028 586.438 502.66 561.834 592.297 565.863C681.938 569.891 762.753 602.561 838.616 655.237C990.418 760.643 1122.07 945.903 1264.58 1141.14Z" stroke="#1A1A1A" stroke-width="2.41377"/>
<path d="M1276.64 1163.78C1339.91 1265.48 1399.63 1360.09 1446.37 1448.28C1493.12 1536.46 1526.83 1618.15 1538.12 1693.99C1549.41 1769.81 1538.29 1839.75 1495.4 1904.51C1452.49 1969.29 1377.72 2028.99 1261.46 2084.2C1203.27 2111.83 1156.66 2133.34 1119.16 2149.04C1081.64 2164.75 1053.31 2174.61 1031.63 2178.98C1009.94 2183.35 995.154 2182.17 984.5 2176.1C973.811 2170 966.973 2158.8 961.712 2142.44C940.699 2077.08 945.995 1932.43 819.392 1728.93C756.077 1627.16 665.755 1520.25 573.22 1413.71C480.661 1307.15 385.893 1200.97 313.574 1100.6C241.236 1000.21 191.5 905.797 188.799 822.775C187.45 781.296 197.841 742.676 223.017 707.555C248.197 672.426 288.221 640.723 346.266 613.159C462.484 557.971 562.843 539.44 651.941 548.923C741.042 558.407 819.05 595.923 890.519 653.095C1033.53 767.496 1150.06 960.328 1276.64 1163.78Z" stroke="#1A1A1A" stroke-width="2.41377"/>
<path d="M1287.81 1189.54C1341.93 1295.2 1393.14 1393.54 1431.97 1484.61C1470.8 1575.68 1497.22 1659.39 1501.79 1735.77C1506.37 1812.12 1489.12 1881.1 1440.64 1942.79C1392.15 2004.48 1312.33 2058.98 1191.56 2106.21C1131.1 2129.84 1082.74 2148.16 1043.96 2161.29C1005.17 2174.43 976.049 2182.35 954.047 2185.25C932.04 2188.14 917.397 2185.98 907.312 2179.21C897.196 2172.42 891.366 2160.79 887.564 2144.12C872.374 2077.55 890.4 1933.68 782.105 1722.27C727.946 1616.54 647.312 1503.87 564.441 1391.42C481.547 1278.95 396.417 1166.72 333.159 1061.78C269.883 956.817 228.615 859.345 233.239 776.391C235.549 734.946 249.313 697.14 277.51 663.814C305.713 630.482 348.413 601.564 408.718 577.985C529.457 530.777 631.154 519.051 719.155 534.5C807.156 549.948 881.625 592.6 947.842 654.407C1080.35 778.086 1179.54 978.181 1287.81 1189.54Z" stroke="#1A1A1A" stroke-width="2.41377"/>
<path d="M1296.42 1215.1C1341.39 1323.99 1384.07 1425.39 1415.03 1518.73C1446 1612.07 1465.2 1697.27 1463.26 1773.73C1461.31 1850.16 1438.23 1917.83 1384.63 1976.19C1331.02 2034.57 1246.78 2083.72 1122.31 2122.96C1060 2142.6 1010.21 2157.71 970.426 2168.29C930.621 2178.87 900.904 2184.87 878.714 2186.33C856.517 2187.79 842.098 2184.68 832.62 2177.27C823.115 2169.84 818.293 2157.87 815.921 2141.01C806.449 2073.63 836.685 1931.33 746.707 1713.46C701.708 1604.5 630.901 1486.89 557.843 1369.37C484.764 1251.82 409.437 1134.36 355.297 1025.6C301.144 916.81 268.299 816.927 279.979 734.507C285.814 693.33 302.762 656.524 333.722 625.124C364.689 593.717 409.738 567.655 471.887 548.064C596.317 508.84 698.734 503.762 785.176 524.893C871.618 546.023 942.243 593.401 1003.01 659.342C1124.6 791.295 1206.46 997.284 1296.42 1215.1Z" stroke="#1A1A1A" stroke-width="2.41377"/>
<path d="M1304.01 1247.3C1337.34 1359.34 1369.18 1463.74 1390.2 1559.17C1411.22 1654.6 1421.39 1740.97 1411.41 1816.95C1401.44 1892.9 1371.34 1958.43 1311.83 2012.25C1252.31 2066.07 1163.25 2108.26 1035.18 2137.35C971.072 2151.91 919.906 2162.96 879.174 2170.3C838.425 2177.64 808.2 2181.24 785.948 2180.91C763.687 2180.58 749.656 2176.32 740.998 2168.18C732.319 2160.03 728.775 2147.73 728.187 2130.75C725.838 2062.9 770.907 1923.62 704.213 1699.45C670.858 1587.34 612.715 1464.54 552.32 1341.66C491.908 1218.74 429.246 1095.73 386.77 983.087C344.282 870.414 322.079 768.322 342.373 687.192C352.512 646.66 373.256 611.368 407.388 582.584C441.528 553.793 489.13 531.455 553.079 516.933C681.111 487.859 783.633 491.02 867.491 518.999C951.347 546.977 1016.69 599.821 1070.27 670.356C1177.47 811.505 1237.33 1023.19 1304.01 1247.3Z" stroke="#1A1A1A" stroke-width="2.41377"/>
<path d="M1307.9 1276.51C1330.58 1390.56 1352.5 1496.89 1364.47 1593.51C1376.45 1690.12 1378.46 1776.94 1361.37 1851.94C1344.3 1926.91 1308.14 1990.06 1243.77 2039.42C1179.38 2088.8 1086.65 2124.45 956.275 2144.25C891.017 2154.15 838.983 2161.5 797.698 2165.89C756.396 2170.28 725.933 2171.69 703.786 2169.77C681.627 2167.84 668.042 2162.59 660.18 2153.86C652.301 2145.12 649.925 2132.61 650.936 2115.64C654.975 2047.87 712.99 1912.28 667.601 1684.08C644.902 1569.95 598.502 1443.4 549.867 1316.59C501.219 1189.75 450.338 1062.66 418.598 947.352C386.85 832.011 374.323 728.675 402.177 649.28C416.092 609.614 440.085 575.93 476.81 549.692C513.544 523.447 563.089 504.601 628.19 494.717C758.527 474.931 860.409 485.44 941.354 519.344C1022.3 553.247 1082.45 610.603 1129.21 684.743C1222.77 833.107 1262.52 1048.37 1307.9 1276.51Z" stroke="#1A1A1A" stroke-width="2.41377"/>
<path d="M1309.04 1301.83C1322.43 1416.99 1335.67 1524.41 1339.78 1621.53C1343.9 1718.64 1338.87 1805.36 1315.75 1879.11C1292.63 1952.84 1251.45 2013.6 1183.24 2058.85C1115.01 2104.12 1019.62 2133.95 887.965 2145.63C822.068 2151.47 769.569 2155.59 728.032 2157.41C686.478 2159.23 655.975 2158.76 634.037 2155.47C612.087 2152.17 598.961 2146.09 591.828 2136.9C584.68 2127.69 583.324 2115.08 585.708 2098.22C595.228 2030.87 664.087 1899.2 637.307 1668.76C623.914 1553.52 587.888 1424.41 549.652 1294.91C511.406 1165.38 470.952 1035.47 448.638 918.482C426.318 801.468 422.198 697.619 456.415 620.149C473.51 581.446 500.171 549.331 538.932 525.43C577.703 501.522 628.653 485.787 694.394 479.955C826.01 468.281 926.788 485.067 1004.78 523.895C1082.78 562.72 1138.13 623.652 1178.76 700.496C1260.07 854.274 1282.27 1071.45 1309.04 1301.83Z" stroke="#1A1A1A" stroke-width="2.41377"/>
<path d="M1307.96 1329.25C1311.2 1444.97 1314.98 1552.96 1310.56 1650.06C1306.13 1747.17 1293.51 1833.29 1263.99 1905.28C1234.47 1977.24 1188.08 2035.06 1116.1 2075.61C1044.09 2116.18 946.367 2139.53 814.071 2142.36C747.855 2143.77 695.149 2144.35 653.574 2143.39C611.982 2142.42 581.608 2139.91 560.022 2135.16C538.422 2130.4 525.869 2123.46 519.563 2113.82C513.247 2104.16 513 2091.5 516.856 2074.85C532.259 2008.34 612.47 1881.67 605.991 1650.11C602.751 1534.31 578.159 1403.16 551.4 1271.49C524.634 1139.77 495.7 1007.53 483.717 889.399C471.731 771.234 476.737 667.419 517.65 592.472C538.09 555.029 567.49 524.795 608.236 503.559C648.993 482.317 701.177 470.041 767.239 468.63C899.496 465.805 998.506 489.293 1072.87 533.231C1147.22 577.167 1197.07 641.627 1230.83 720.964C1298.4 879.732 1301.48 1097.75 1307.96 1329.25Z" stroke="#1A1A1A" stroke-width="2.41377"/>
<path d="M1305.04 1353.11C1299.39 1468.76 1294.88 1576.73 1283.01 1673.35C1271.15 1769.97 1251.94 1855.16 1216.96 1925.26C1182 1995.32 1131.27 2050.29 1056.34 2086.54C981.378 2122.8 882.077 2140.38 749.861 2135.45C683.685 2132.98 631.053 2130.47 589.644 2127.07C548.22 2123.68 518.106 2119.39 496.932 2113.38C475.742 2107.37 463.75 2099.71 458.199 2089.72C452.64 2079.72 453.365 2067.08 458.49 2050.69C478.961 1985.23 568.715 1863.54 580.021 1632.12C585.675 1516.39 571.204 1384.1 554.61 1251.15C538.012 1118.17 519.292 984.53 516.402 865.961C513.511 747.361 526.473 644.075 573.044 571.696C596.31 535.536 627.965 507.091 670.25 488.289C712.547 469.482 765.557 460.29 831.581 462.752C963.759 467.681 1060.75 496.917 1131.57 545.113C1202.39 593.306 1247.17 660.539 1274.77 741.674C1330.01 904.04 1316.35 1121.75 1305.04 1353.11Z" stroke="#1A1A1A" stroke-width="2.41377"/>
</g>
</g>
</svg>
