<svg width="1403" height="769" viewBox="0 0 1403 769" fill="none" xmlns="http://www.w3.org/2000/svg">
<mask id="mask0_669_10315" style="mask-type:alpha" maskUnits="userSpaceOnUse" x="0" y="0" width="1403" height="813">
<rect width="1403" height="813" rx="64" fill="#1A1A1A"/>
</mask>
<g mask="url(#mask0_669_10315)">
<g style="mix-blend-mode:soft-light">
<path d="M349.605 -613.714L1770.86 -345.046L302.13 -335.938L349.605 -613.714ZM-293.338 -331.243L300.942 -334.927L108.137 793.16L-293.338 -331.243Z" stroke="url(#paint0_linear_669_10315)"/>
<path d="M314.092 -599.888L1744.82 -395.614L279.507 -319.976L314.092 -599.888ZM-314.531 -288.308L278.369 -318.912L137.917 817.859L-314.531 -288.308Z" stroke="url(#paint1_linear_669_10315)"/>
<path d="M279.811 -584.701L1716.95 -444.254L257.992 -303.253L279.811 -584.701ZM-333.425 -245.087L256.905 -302.138L168.296 840.864L-333.425 -245.087Z" stroke="url(#paint2_linear_669_10315)"/>
<path d="M246.086 -567.88L1686.75 -491.938L237.156 -285.464L246.086 -567.88ZM-350.417 -200.756L236.121 -284.3L199.854 862.639L-350.417 -200.756Z" stroke="url(#paint3_linear_669_10315)"/>
<path d="M215.874 -551.114L1657.17 -534.499L218.786 -268.316L215.874 -551.114ZM-364.2 -159.408L217.802 -267.11L229.627 881.372L-364.2 -159.408Z" stroke="url(#paint4_linear_669_10315)"/>
<path d="M187.857 -534.022L1627.45 -573.83L202.021 -251.315L187.857 -534.022ZM-375.673 -119.574L201.086 -250.071L258.61 898.043L-375.673 -119.574Z" stroke="url(#paint5_linear_669_10315)"/>
<path d="M162.064 -516.872L1597.99 -609.905L186.834 -234.655L162.064 -516.872ZM-385.036 -81.5417L185.947 -233.376L286.544 912.749L-385.036 -81.5417Z" stroke="url(#paint6_linear_669_10315)"/>
<path d="M131.939 -494.975L1560.8 -651.873L169.424 -213.867L131.939 -494.975ZM-394.386 -35.3223L168.596 -212.549L320.83 929.069L-394.386 -35.3223Z" stroke="url(#paint7_linear_669_10315)"/>
<path d="M101.674 -470.735L1520.13 -693.832L152.325 -191.384L101.674 -470.735ZM-401.883 13.2727L151.56 -190.027L357.261 944.455L-401.883 13.2727Z" stroke="url(#paint8_linear_669_10315)"/>
<path d="M74.9982 -447.294L1481.2 -730.623L137.617 -170.088L74.9982 -447.294ZM-406.729 58.1041L136.912 -168.699L391.213 957.068L-406.729 58.1041Z" stroke="url(#paint9_linear_669_10315)"/>
<path d="M49.9369 -423.276L1441.65 -765.006L124.148 -148.66L49.9369 -423.276ZM-409.589 102.145L123.502 -147.242L424.882 968.009L-409.589 102.145Z" stroke="url(#paint10_linear_669_10315)"/>
<path d="M23.1766 -395.19L1395.83 -801.473L110.188 -124.037L23.1766 -395.19ZM-410.586 151.514L109.609 -122.59L462.971 978.595L-410.586 151.514Z" stroke="url(#paint11_linear_669_10315)"/>
<path d="M1.36626 -370.165L1355.31 -831.024L99.1877 -102.449L1.36626 -370.165ZM-409.578 193.816L98.6686 -100.978L495.933 986.244L-409.578 193.816Z" stroke="url(#paint12_linear_669_10315)"/>
<path d="M-19.3222 -344.372L1313.81 -858.861L89.1122 -80.5071L-19.3222 -344.372ZM-406.88 235.918L88.6524 -79.0164L529.014 992.559L-406.88 235.918Z" stroke="url(#paint13_linear_669_10315)"/>
<path d="M-39.7046 -316.665L1269.52 -886.081L79.588 -57.2547L-39.7046 -316.665ZM-402.276 279.612L79.191 -55.7445L563.648 997.742L-402.276 279.612Z" stroke="url(#paint14_linear_669_10315)"/>
<path d="M-59.3224 -287.445L1223.12 -912.049L70.8678 -33.0541L-59.3224 -287.445ZM-395.681 324.126L70.5349 -31.5285L599.246 1001.57L-395.681 324.126Z" stroke="url(#paint15_linear_669_10315)"/>
<path d="M-82.2557 -249.366L1163.04 -942.048L61.3598 -1.97103L-82.2557 -249.366ZM-384.644 379.94L61.1101 -0.426881L644.342 1004.26L-384.644 379.94Z" stroke="url(#paint16_linear_669_10315)"/>
<path d="M-102.129 -211.962L1104.44 -967.637L53.8909 28.1068L-102.129 -211.962ZM-371.348 432.553L53.7192 29.6613L687.324 1004.59L-371.348 432.553Z" stroke="url(#paint17_linear_669_10315)"/>
<path d="M-119.156 -175.562L1047.78 -989.168L48.2531 56.977L-119.156 -175.562ZM-356.262 481.823L48.1577 58.5408L728.012 1002.89L-356.262 481.823Z" stroke="url(#paint18_linear_669_10315)"/>
<path d="M-133.575 -140.411L993.373 -1007L44.2367 84.5094L-133.575 -140.411ZM-339.82 527.714L44.2121 86.0765L766.308 999.485L-339.82 527.714Z" stroke="url(#paint19_linear_669_10315)"/>
<path d="M-145.886 -105.98L940.365 -1021.84L41.5798 111.166L-145.886 -105.98ZM-322.033 571.156L41.6238 112.733L802.927 994.566L-322.033 571.156Z" stroke="url(#paint20_linear_669_10315)"/>
<path d="M-157.11 -69.3523L884.262 -1034.87L40.0739 139.201L-157.11 -69.3523ZM-301.377 615.808L40.1904 140.767L840.956 987.702L-301.377 615.808Z" stroke="url(#paint21_linear_669_10315)"/>
<path d="M-165.964 -34.9787L831.88 -1044.66L39.8441 165.221L-165.964 -34.9787ZM-280.435 656.31L40.0283 166.784L875.815 979.796L-280.435 656.31Z" stroke="url(#paint22_linear_669_10315)"/>
<path d="M-173.673 1.66217L776.302 -1052.57L40.8208 192.661L-173.673 1.66217ZM-256.508 698.043L41.0739 194.214L912.127 969.855L-256.508 698.043Z" stroke="url(#paint23_linear_669_10315)"/>
<path d="M-179.5 37.1817L722.686 -1057.84L42.9262 218.977L-179.5 37.1817ZM-231.789 737.125L43.2457 220.52L946.51 958.784L-231.789 737.125Z" stroke="url(#paint24_linear_669_10315)"/>
<path d="M-183.229 67.6365L676.912 -1060.5L45.6254 241.323L-183.229 67.6365ZM-209.421 769.578L46.0011 242.855L975.368 948.189L-209.421 769.578Z" stroke="url(#paint25_linear_669_10315)"/>
<path d="M-185.91 99.5711L629.103 -1061.5L49.3206 264.543L-185.91 99.5711ZM-184.826 802.583L49.7552 266.061L1005.02 936.004L-184.826 802.583Z" stroke="url(#paint26_linear_669_10315)"/>
<path d="M-187.553 142.616L564.97 -1059.97L55.693 295.503L-187.553 142.616ZM-149.85 845.428L56.2047 296.999L1044.02 917.865L-149.85 845.428Z" stroke="url(#paint27_linear_669_10315)"/>
<path d="M-187.283 175.944L515.554 -1056.54L61.7146 319.208L-187.283 175.944ZM-121.339 877.314L62.285 320.684L1073.45 902.473L-121.339 877.314Z" stroke="url(#paint28_linear_669_10315)"/>
<path d="M-185.751 208.106L468.064 -1051.37L68.4214 341.866L-185.751 208.106ZM-92.6478 907.025L69.0477 343.319L1101.23 886.511L-92.6478 907.025Z" stroke="url(#paint29_linear_669_10315)"/>
<path d="M-182.299 246.314L411.898 -1042.85L77.5408 368.502L-182.299 246.314ZM-57.0482 940.962L78.2335 369.928L1133.42 866.124L-57.0482 940.962Z" stroke="url(#paint30_linear_669_10315)"/>
<path d="M-177.375 282.559L358.873 -1032.36L87.3533 393.485L-177.375 282.559ZM-21.7506 971.778L88.107 394.881L1163.15 845.344L-21.7506 971.778Z" stroke="url(#paint31_linear_669_10315)"/>
<path d="M-172.193 311.928L316.091 -1022.11L96.1444 413.523L-172.193 311.928ZM7.95657 995.75L96.9468 414.893L1186.65 827.464L7.95657 995.75Z" stroke="url(#paint32_linear_669_10315)"/>
<path d="M-166.352 339.422L276.201 -1011.08L105.074 432.113L-166.352 339.422ZM36.6836 1017.37L105.921 433.457L1208.16 809.866L36.6836 1017.37Z" stroke="url(#paint33_linear_669_10315)"/>
<path d="M-159.143 368.397L234.324 -997.917L115.226 451.523L-159.143 368.397ZM67.9323 1039.28L116.12 452.836L1230.31 790.402L67.9323 1039.28Z" stroke="url(#paint34_linear_669_10315)"/>
<path d="M-151.061 396.616L193.696 -983.549L125.861 470.242L-151.061 396.616ZM99.3539 1059.73L126.8 471.525L1251.36 770.514L99.3539 1059.73Z" stroke="url(#paint35_linear_669_10315)"/>
<path d="M-141.332 426.488L150.882 -966.623L137.947 489.857L-141.332 426.488ZM133.698 1080.39L138.932 491.106L1273.06 748.444L133.698 1080.39Z" stroke="url(#paint36_linear_669_10315)"/>
<path d="M-132.301 451.291L115.477 -951.18L148.654 505.98L-132.301 451.291ZM163.102 1096.76L149.679 507.198L1290.61 729.285L163.102 1096.76Z" stroke="url(#paint37_linear_669_10315)"/>
<path d="M-121.147 479.038L76.0332 -932.366L161.373 523.835L-121.147 479.038ZM196.967 1114.19L162.439 525.017L1309.72 706.935L196.967 1114.19Z" stroke="url(#paint38_linear_669_10315)"/>
<path d="M-109.293 505.793L38.1693 -912.624L174.412 540.863L-109.293 505.793ZM230.642 1130.09L175.519 542.009L1327.61 684.424L230.642 1130.09Z" stroke="url(#paint39_linear_669_10315)"/>
<path d="M-94.637 535.835L-4.13206 -888.498L190.001 559.752L-94.637 535.835ZM269.697 1146.81L191.152 560.853L1347.04 657.978L269.697 1146.81Z" stroke="url(#paint40_linear_669_10315)"/>
<path d="M-80.0137 563.148L-42.3927 -864.658L205.09 576.7L-80.0137 563.148ZM306.409 1160.93L206.279 577.76L1364.06 632.798L306.409 1160.93Z" stroke="url(#paint41_linear_669_10315)"/>
<path d="M-61.7535 594.258L-85.7215 -835.168L223.406 595.73L-61.7535 594.258ZM349.713 1175.68L224.64 596.74L1382.65 602.719L349.713 1175.68Z" stroke="url(#paint42_linear_669_10315)"/>
<path d="M-43.6529 622.417L-124.696 -806.182L241.095 612.684L-43.6529 622.417ZM390.367 1187.72L242.367 613.645L1398.71 574.12L390.367 1187.72Z" stroke="url(#paint43_linear_669_10315)"/>
<path d="M-19.7853 656.219L-171.146 -768.259L263.836 632.668L-19.7853 656.219ZM441.148 1200.38L265.153 633.567L1416.92 537.926L441.148 1200.38Z" stroke="url(#paint44_linear_669_10315)"/>
</g>
</g>
<defs>
<linearGradient id="paint0_linear_669_10315" x1="533.562" y1="875.507" x2="799.111" y2="-529.25" gradientUnits="userSpaceOnUse">
<stop stop-color="white"/>
<stop offset="1" stop-color="white" stop-opacity="0"/>
</linearGradient>
<linearGradient id="paint1_linear_669_10315" x1="566.266" y1="880.93" x2="768.503" y2="-535.514" gradientUnits="userSpaceOnUse">
<stop stop-color="white"/>
<stop offset="1" stop-color="white" stop-opacity="0"/>
</linearGradient>
<linearGradient id="paint2_linear_669_10315" x1="598.652" y1="884.825" x2="737.938" y2="-540.433" gradientUnits="userSpaceOnUse">
<stop stop-color="white"/>
<stop offset="1" stop-color="white" stop-opacity="0"/>
</linearGradient>
<linearGradient id="paint3_linear_669_10315" x1="631.35" y1="887.284" x2="706.802" y2="-544.096" gradientUnits="userSpaceOnUse">
<stop stop-color="white"/>
<stop offset="1" stop-color="white" stop-opacity="0"/>
</linearGradient>
<linearGradient id="paint4_linear_669_10315" x1="661.393" y1="888.248" x2="677.93" y2="-546.289" gradientUnits="userSpaceOnUse">
<stop stop-color="white"/>
<stop offset="1" stop-color="white" stop-opacity="0"/>
</linearGradient>
<linearGradient id="paint5_linear_669_10315" x1="689.942" y1="888.018" x2="650.252" y2="-547.31" gradientUnits="userSpaceOnUse">
<stop stop-color="white"/>
<stop offset="1" stop-color="white" stop-opacity="0"/>
</linearGradient>
<linearGradient id="paint6_linear_669_10315" x1="716.847" y1="886.776" x2="623.934" y2="-547.299" gradientUnits="userSpaceOnUse">
<stop stop-color="white"/>
<stop offset="1" stop-color="white" stop-opacity="0"/>
</linearGradient>
<linearGradient id="paint7_linear_669_10315" x1="749.105" y1="883.96" x2="592.085" y2="-546.007" gradientUnits="userSpaceOnUse">
<stop stop-color="white"/>
<stop offset="1" stop-color="white" stop-opacity="0"/>
</linearGradient>
<linearGradient id="paint8_linear_669_10315" x1="782.507" y1="879.504" x2="558.753" y2="-543.134" gradientUnits="userSpaceOnUse">
<stop stop-color="white"/>
<stop offset="1" stop-color="white" stop-opacity="0"/>
</linearGradient>
<linearGradient id="paint9_linear_669_10315" x1="812.867" y1="874.062" x2="528.134" y2="-539.107" gradientUnits="userSpaceOnUse">
<stop stop-color="white"/>
<stop offset="1" stop-color="white" stop-opacity="0"/>
</linearGradient>
<linearGradient id="paint10_linear_669_10315" x1="842.276" y1="867.49" x2="498.181" y2="-533.859" gradientUnits="userSpaceOnUse">
<stop stop-color="white"/>
<stop offset="1" stop-color="white" stop-opacity="0"/>
</linearGradient>
<linearGradient id="paint11_linear_669_10315" x1="874.74" y1="858.717" x2="464.762" y2="-526.418" gradientUnits="userSpaceOnUse">
<stop stop-color="white"/>
<stop offset="1" stop-color="white" stop-opacity="0"/>
</linearGradient>
<linearGradient id="paint12_linear_669_10315" x1="902.166" y1="849.994" x2="436.273" y2="-518.732" gradientUnits="userSpaceOnUse">
<stop stop-color="white"/>
<stop offset="1" stop-color="white" stop-opacity="0"/>
</linearGradient>
<linearGradient id="paint13_linear_669_10315" x1="929.088" y1="840.221" x2="408.061" y2="-509.85" gradientUnits="userSpaceOnUse">
<stop stop-color="white"/>
<stop offset="1" stop-color="white" stop-opacity="0"/>
</linearGradient>
<linearGradient id="paint14_linear_669_10315" x1="956.636" y1="828.921" x2="378.958" y2="-499.302" gradientUnits="userSpaceOnUse">
<stop stop-color="white"/>
<stop offset="1" stop-color="white" stop-opacity="0"/>
</linearGradient>
<linearGradient id="paint15_linear_669_10315" x1="984.281" y1="816.185" x2="349.512" y2="-487.126" gradientUnits="userSpaceOnUse">
<stop stop-color="white"/>
<stop offset="1" stop-color="white" stop-opacity="0"/>
</linearGradient>
<linearGradient id="paint16_linear_669_10315" x1="1018.34" y1="798.434" x2="312.922" y2="-469.756" gradientUnits="userSpaceOnUse">
<stop stop-color="white"/>
<stop offset="1" stop-color="white" stop-opacity="0"/>
</linearGradient>
<linearGradient id="paint17_linear_669_10315" x1="1049.81" y1="779.847" x2="278.833" y2="-451.154" gradientUnits="userSpaceOnUse">
<stop stop-color="white"/>
<stop offset="1" stop-color="white" stop-opacity="0"/>
</linearGradient>
<linearGradient id="paint18_linear_669_10315" x1="1078.7" y1="760.744" x2="247.317" y2="-431.687" gradientUnits="userSpaceOnUse">
<stop stop-color="white"/>
<stop offset="1" stop-color="white" stop-opacity="0"/>
</linearGradient>
<linearGradient id="paint19_linear_669_10315" x1="1105.09" y1="741.416" x2="218.38" y2="-411.691" gradientUnits="userSpaceOnUse">
<stop stop-color="white"/>
<stop offset="1" stop-color="white" stop-opacity="0"/>
</linearGradient>
<linearGradient id="paint20_linear_669_10315" x1="1129.58" y1="721.689" x2="191.412" y2="-391.027" gradientUnits="userSpaceOnUse">
<stop stop-color="white"/>
<stop offset="1" stop-color="white" stop-opacity="0"/>
</linearGradient>
<linearGradient id="paint21_linear_669_10315" x1="1154.23" y1="699.891" x2="164.187" y2="-367.935" gradientUnits="userSpaceOnUse">
<stop stop-color="white"/>
<stop offset="1" stop-color="white" stop-opacity="0"/>
</linearGradient>
<linearGradient id="paint22_linear_669_10315" x1="1176.11" y1="678.701" x2="139.987" y2="-345.276" gradientUnits="userSpaceOnUse">
<stop stop-color="white"/>
<stop offset="1" stop-color="white" stop-opacity="0"/>
</linearGradient>
<linearGradient id="paint23_linear_669_10315" x1="1198.14" y1="655.353" x2="115.611" y2="-320.123" gradientUnits="userSpaceOnUse">
<stop stop-color="white"/>
<stop offset="1" stop-color="white" stop-opacity="0"/>
</linearGradient>
<linearGradient id="paint24_linear_669_10315" x1="1218.26" y1="632.004" x2="93.3667" y2="-294.799" gradientUnits="userSpaceOnUse">
<stop stop-color="white"/>
<stop offset="1" stop-color="white" stop-opacity="0"/>
</linearGradient>
<linearGradient id="paint25_linear_669_10315" x1="1234.57" y1="611.433" x2="75.3819" y2="-272.382" gradientUnits="userSpaceOnUse">
<stop stop-color="white"/>
<stop offset="1" stop-color="white" stop-opacity="0"/>
</linearGradient>
<linearGradient id="paint26_linear_669_10315" x1="1250.75" y1="589.326" x2="57.5963" y2="-248.206" gradientUnits="userSpaceOnUse">
<stop stop-color="white"/>
<stop offset="1" stop-color="white" stop-opacity="0"/>
</linearGradient>
<linearGradient id="paint27_linear_669_10315" x1="1271.08" y1="558.668" x2="35.3701" y2="-214.581" gradientUnits="userSpaceOnUse">
<stop stop-color="white"/>
<stop offset="1" stop-color="white" stop-opacity="0"/>
</linearGradient>
<linearGradient id="paint28_linear_669_10315" x1="1285.67" y1="534.257" x2="19.5465" y2="-187.764" gradientUnits="userSpaceOnUse">
<stop stop-color="white"/>
<stop offset="1" stop-color="white" stop-opacity="0"/>
</linearGradient>
<linearGradient id="paint29_linear_669_10315" x1="1298.8" y1="510.146" x2="5.42817" y2="-161.264" gradientUnits="userSpaceOnUse">
<stop stop-color="white"/>
<stop offset="1" stop-color="white" stop-opacity="0"/>
</linearGradient>
<linearGradient id="paint30_linear_669_10315" x1="1313.18" y1="480.787" x2="-9.85444" y2="-129.019" gradientUnits="userSpaceOnUse">
<stop stop-color="white"/>
<stop offset="1" stop-color="white" stop-opacity="0"/>
</linearGradient>
<linearGradient id="paint31_linear_669_10315" x1="1325.58" y1="452.218" x2="-22.8421" y2="-97.6939" gradientUnits="userSpaceOnUse">
<stop stop-color="white"/>
<stop offset="1" stop-color="white" stop-opacity="0"/>
</linearGradient>
<linearGradient id="paint32_linear_669_10315" x1="1334.73" y1="428.546" x2="-32.2737" y2="-71.8042" gradientUnits="userSpaceOnUse">
<stop stop-color="white"/>
<stop offset="1" stop-color="white" stop-opacity="0"/>
</linearGradient>
<linearGradient id="paint33_linear_669_10315" x1="1342.57" y1="405.957" x2="-40.196" y2="-47.1654" gradientUnits="userSpaceOnUse">
<stop stop-color="white"/>
<stop offset="1" stop-color="white" stop-opacity="0"/>
</linearGradient>
<linearGradient id="paint34_linear_669_10315" x1="1350.03" y1="381.692" x2="-47.5878" y2="-20.7897" gradientUnits="userSpaceOnUse">
<stop stop-color="white"/>
<stop offset="1" stop-color="white" stop-opacity="0"/>
</linearGradient>
<linearGradient id="paint35_linear_669_10315" x1="1356.51" y1="357.59" x2="-53.8273" y2="5.29543" gradientUnits="userSpaceOnUse">
<stop stop-color="white"/>
<stop offset="1" stop-color="white" stop-opacity="0"/>
</linearGradient>
<linearGradient id="paint36_linear_669_10315" x1="1362.48" y1="331.574" x2="-59.3752" y2="33.3287" gradientUnits="userSpaceOnUse">
<stop stop-color="white"/>
<stop offset="1" stop-color="white" stop-opacity="0"/>
</linearGradient>
<linearGradient id="paint37_linear_669_10315" x1="1366.74" y1="309.551" x2="-63.1357" y2="56.9312" gradientUnits="userSpaceOnUse">
<stop stop-color="white"/>
<stop offset="1" stop-color="white" stop-opacity="0"/>
</linearGradient>
<linearGradient id="paint38_linear_669_10315" x1="1370.71" y1="284.457" x2="-66.4181" y2="83.6837" gradientUnits="userSpaceOnUse">
<stop stop-color="white"/>
<stop offset="1" stop-color="white" stop-opacity="0"/>
</linearGradient>
<linearGradient id="paint39_linear_669_10315" x1="1373.71" y1="259.78" x2="-68.629" y2="109.831" gradientUnits="userSpaceOnUse">
<stop stop-color="white"/>
<stop offset="1" stop-color="white" stop-opacity="0"/>
</linearGradient>
<linearGradient id="paint40_linear_669_10315" x1="1376.08" y1="231.487" x2="-69.9592" y2="139.603" gradientUnits="userSpaceOnUse">
<stop stop-color="white"/>
<stop offset="1" stop-color="white" stop-opacity="0"/>
</linearGradient>
<linearGradient id="paint41_linear_669_10315" x1="1377.26" y1="205.195" x2="-70.0759" y2="167.059" gradientUnits="userSpaceOnUse">
<stop stop-color="white"/>
<stop offset="1" stop-color="white" stop-opacity="0"/>
</linearGradient>
<linearGradient id="paint42_linear_669_10315" x1="1377.41" y1="174.549" x2="-68.883" y2="198.799" gradientUnits="userSpaceOnUse">
<stop stop-color="white"/>
<stop offset="1" stop-color="white" stop-opacity="0"/>
</linearGradient>
<linearGradient id="paint43_linear_669_10315" x1="1376.37" y1="146.122" x2="-66.5283" y2="227.976" gradientUnits="userSpaceOnUse">
<stop stop-color="white"/>
<stop offset="1" stop-color="white" stop-opacity="0"/>
</linearGradient>
<linearGradient id="paint44_linear_669_10315" x1="1373.51" y1="111.068" x2="-62.0045" y2="263.602" gradientUnits="userSpaceOnUse">
<stop stop-color="white"/>
<stop offset="1" stop-color="white" stop-opacity="0"/>
</linearGradient>
</defs>
</svg>
