<svg width="256" height="167" viewBox="0 0 256 167" fill="none" xmlns="http://www.w3.org/2000/svg">
<g opacity="0.3">
<path fill-rule="evenodd" clip-rule="evenodd" d="M121.913 102.198V82.8104H131.699C135.709 82.8104 139.093 81.4364 141.852 78.7267L142.515 78.0398C147.554 72.4295 147.223 63.6898 141.852 58.4993C139.167 55.7515 135.488 54.263 131.699 54.3394H115.99V102.198H121.913ZM121.914 76.9326V60.2163H131.848C133.982 60.2163 136.006 61.056 137.515 62.5826C140.716 65.7884 140.789 71.1315 137.699 74.4518C136.19 76.0929 134.056 77.0089 131.848 76.9326H121.914Z" fill="#1A1A1A"/>
<path fill-rule="evenodd" clip-rule="evenodd" d="M170.142 72.0094C167.604 69.605 164.146 68.3838 159.768 68.3838C154.14 68.3838 149.909 70.521 147.113 74.7573L152.337 78.154C154.25 75.2534 156.862 73.8032 160.173 73.8032C162.27 73.8032 164.293 74.6046 165.875 76.0549C167.42 77.4288 168.303 79.4134 168.303 81.5125V82.9246C166.022 81.627 163.153 80.94 159.621 80.94C155.501 80.94 152.19 81.9323 149.725 83.955C147.26 85.9778 146.01 88.6493 146.01 92.046C145.936 95.1374 147.224 98.076 149.504 100.061C151.822 102.198 154.765 103.266 158.223 103.266C162.307 103.266 165.544 101.396 168.009 97.6562H168.266V102.198H173.931V82.0086C173.931 77.7723 172.681 74.4138 170.142 72.0094ZM154.067 96.1679C152.853 95.252 152.117 93.7636 152.117 92.1606C152.117 90.3669 152.926 88.8785 154.509 87.6953C156.128 86.5122 158.151 85.9016 160.543 85.9016C163.854 85.8634 166.43 86.6267 168.269 88.1533C168.269 90.7485 167.276 93.0003 165.326 94.9085C163.56 96.7404 161.168 97.7709 158.666 97.7709C157.011 97.809 155.392 97.2366 154.067 96.1679Z" fill="#1A1A1A"/>
<path d="M186.66 116.586L206.452 69.4523H200.014L190.854 92.9619H190.744L181.363 69.4523H174.925L187.911 100.099L180.553 116.586H186.66Z" fill="#1A1A1A"/>
<path d="M101.466 78.6124C101.466 76.7423 101.318 74.8722 101.024 73.0403H76.0451V83.612H90.3556C89.767 87.0087 87.854 90.0619 85.0581 91.9701V98.8398H93.5929C98.596 94.0692 101.466 87.0087 101.466 78.6124Z" fill="#1A1A1A"/>
<path d="M76.0461 105.481C83.1829 105.481 89.2151 103.038 93.5929 98.8398L85.0581 91.9701C82.6669 93.6494 79.6145 94.6038 76.0461 94.6038C69.13 94.6038 63.2807 89.7568 61.1838 83.2688H52.3915V90.3675C56.8796 99.6415 66.0398 105.481 76.0461 105.481Z" fill="#1A1A1A"/>
<path d="M61.1838 83.2688C60.08 79.8721 60.081 76.1699 61.1848 72.7351V65.6746H52.3911C48.6014 73.4221 48.6014 82.5816 52.3911 90.3291L61.1838 83.2688Z" fill="#1A1A1A"/>
<path d="M76.0461 61.4001C79.8352 61.3238 83.4772 62.8122 86.1996 65.522L93.7779 57.66C88.9586 53.0039 82.6311 50.4468 76.0461 50.5231C66.0398 50.5231 56.8793 56.4005 52.3911 65.6746L61.1838 72.7733C63.2807 66.2471 69.13 61.4001 76.0461 61.4001Z" fill="#1A1A1A"/>
</g>
</svg>
