<svg width="256" height="166" viewBox="0 0 256 166" fill="none" xmlns="http://www.w3.org/2000/svg">
<g opacity="0.3">
<path d="M205.271 80.8445C204.186 81.6009 202.611 81.9748 200.456 81.9748H198.319L199.958 73.1241H201.53C203.318 73.1241 204.625 73.412 205.525 73.9963C206.229 74.4546 207.063 75.3617 207.063 77.0831C207.063 79.1572 206.093 80.273 205.271 80.8445ZM77.7863 91.9524H61.2476L62.3165 86.1672H72.6902L73.869 79.6512H63.595L64.5882 73.9256H81.0979L77.7863 91.9524ZM214.181 68.9599C211.749 67.293 208.07 66.4531 203.245 66.4531H190.61L185.913 91.9532H169.362L170.423 86.1681H180.395L181.581 79.6699L171.615 79.6878L172.682 73.9274H182.951L184.317 66.454H163.458L158.999 90.6449H151.351L155.841 66.454H144.936L140.478 90.6449H133.02L137.515 66.454H126.62L121.912 91.9541H105.243L106.293 86.1689H116.31L117.49 79.7083L107.488 79.6989L108.55 73.9274H118.933L120.293 66.454H55.3057L51.6065 86.6621L44.237 66.4531H32.9264L26.8389 99.4309H37.6401L41.324 78.6674L48.4762 99.4309H87.1906L91.8966 73.9265H97.9543L93.2458 99.4309H195.115L198.066 83.33L202.848 99.4309H213.655L208.704 86.2754L209.834 86.0309C212.325 85.4977 214.275 84.3487 215.627 82.6273C216.982 80.8897 217.671 78.6589 217.671 75.9793C217.671 72.8584 216.532 70.5637 214.181 68.9599Z" fill="#1A1A1A"/>
<path d="M223.087 95.5306L224.559 95.454C224.871 95.4395 225.117 95.3927 225.289 95.3185C225.461 95.2461 225.591 95.1354 225.675 94.9864C225.758 94.8382 225.798 94.6823 225.787 94.5153C225.774 94.2683 225.675 94.0716 225.49 93.9208C225.304 93.7717 225.018 93.7104 224.634 93.7283L222.996 93.8118L223.087 95.5306ZM222.543 98.459L222.278 93.2718L224.579 93.1559C225.039 93.1321 225.391 93.161 225.637 93.2428C225.884 93.3229 226.083 93.4779 226.239 93.707C226.395 93.9353 226.482 94.1891 226.493 94.4753C226.514 94.8433 226.41 95.1584 226.185 95.4242C225.96 95.6874 225.601 95.8671 225.108 95.9608C225.293 96.0408 225.437 96.1175 225.534 96.1967C225.744 96.3705 225.945 96.5919 226.138 96.8594L227.106 98.2256L226.25 98.2691L225.509 97.2248C225.293 96.9224 225.116 96.6924 224.978 96.534C224.841 96.3756 224.717 96.2674 224.612 96.2061C224.509 96.1448 224.398 96.1047 224.293 96.0826C224.213 96.0707 224.086 96.069 223.909 96.0783L223.117 96.1184L223.231 98.4241L222.543 98.459Z" fill="#1A1A1A"/>
<path d="M220.296 95.9489C220.243 94.8756 220.607 93.8467 221.327 93.0512C222.047 92.2539 223.037 91.7829 224.112 91.7284C226.325 91.6134 228.218 93.3229 228.332 95.5383C228.336 95.6065 228.34 95.6788 228.34 95.7444C228.34 97.8704 226.665 99.6515 224.52 99.7639C222.303 99.8763 220.412 98.1652 220.296 95.9489ZM224.066 90.9013C222.775 90.9703 221.583 91.5342 220.716 92.4958C219.849 93.4566 219.406 94.7002 219.473 95.994C219.613 98.6617 221.894 100.72 224.564 100.587C227.23 100.449 229.293 98.1651 229.155 95.4974V95.4949C229.02 92.8263 226.738 90.7659 224.066 90.9013Z" fill="#1A1A1A"/>
</g>
</svg>
