<svg width="256" height="166" viewBox="0 0 256 166" fill="none" xmlns="http://www.w3.org/2000/svg">
<g opacity="0.3">
<path d="M105.72 79.193C105.253 82.6909 102.455 82.6909 99.89 82.6909H98.4909L99.6568 75.9283C99.6568 75.4619 100.123 75.2287 100.59 75.2287H101.289C103.155 75.2287 104.787 75.2287 105.72 76.1615C105.72 77.0943 105.72 78.027 105.72 79.193ZM104.554 69.8652H94.5266C93.827 69.8652 93.3606 70.3316 93.1274 71.0312L89.1631 96.6826C89.1631 97.1489 89.3963 97.6153 90.0959 97.6153H94.7598C95.4593 97.6153 95.9257 97.1489 96.1589 96.4494L97.3249 89.4535C97.3249 88.754 98.0245 88.2876 98.7241 88.2876H101.989C108.518 88.2876 112.249 85.0228 113.415 78.7266C113.882 75.9283 113.415 73.8295 112.249 72.1972C110.384 70.798 107.819 69.8652 104.554 69.8652Z" fill="#1A1A1A"/>
<path d="M127.641 88.5217C127.174 91.32 125.076 93.1856 122.277 93.1856C120.878 93.1856 119.712 92.7192 119.012 91.7864C118.313 90.8536 118.08 89.6877 118.313 88.5217C118.779 85.7234 120.878 83.8578 123.676 83.8578C125.076 83.8578 126.241 84.3242 126.941 85.257C127.407 85.9566 127.874 87.1225 127.641 88.5217ZM134.17 79.1939H129.506C129.04 79.1939 128.807 79.4271 128.573 79.8935L128.34 81.2927L128.107 80.8263C127.174 79.4271 124.842 78.7275 122.51 78.7275C117.147 78.7275 112.716 82.6918 111.783 88.2885C111.317 91.0868 112.017 93.652 113.649 95.5175C115.048 97.1499 117.147 97.8495 119.712 97.8495C123.91 97.8495 126.241 95.0511 126.241 95.0511L126.008 96.4503C126.008 96.9167 126.241 97.3831 126.941 97.3831H131.139C131.838 97.3831 132.305 96.9167 132.538 96.2171L135.103 79.8935C135.103 79.6603 134.87 79.1939 134.17 79.1939Z" fill="#1A1A1A"/>
<path d="M159.588 79.1934H154.69C154.224 79.1934 153.758 79.4266 153.524 79.8929L146.995 89.6871L144.197 80.3593C143.964 79.6597 143.497 79.4265 142.798 79.4265H138.134C137.667 79.4265 137.201 79.8929 137.434 80.5925L142.798 95.9833L137.9 102.979C137.434 103.446 137.9 104.378 138.6 104.378H143.497C143.964 104.378 144.43 104.145 144.663 103.679L160.52 80.5925C160.753 79.8929 160.287 79.1934 159.588 79.1934Z" fill="#1A1A1A"/>
<path d="M176.611 79.193C176.145 82.6909 173.347 82.6909 170.782 82.6909H169.382L170.548 75.9283C170.548 75.4619 171.015 75.2287 171.481 75.2287H172.181C174.046 75.2287 175.679 75.2287 176.611 76.1615C176.845 77.0943 176.845 78.027 176.611 79.193ZM175.446 69.8652H165.418C164.719 69.8652 164.252 70.3316 164.019 71.0312L160.055 96.6826C160.055 97.1489 160.288 97.6153 160.988 97.6153H166.118C166.584 97.6153 167.051 97.3821 167.051 96.6826L168.216 89.4535C168.216 88.754 168.916 88.2876 169.616 88.2876H172.88C179.41 88.2876 183.141 85.0228 184.307 78.7266C184.773 75.9283 184.307 73.8295 183.141 72.1972C181.509 70.798 178.943 69.8652 175.446 69.8652Z" fill="#1A1A1A"/>
<path d="M198.765 88.5217C198.298 91.32 196.2 93.1856 193.401 93.1856C192.002 93.1856 190.836 92.7192 190.136 91.7864C189.437 90.8536 189.204 89.6877 189.437 88.5217C189.903 85.7234 192.002 83.8578 194.8 83.8578C196.2 83.8578 197.366 84.3242 198.065 85.257C198.531 85.9566 198.998 87.1225 198.765 88.5217ZM205.294 79.1939H200.63C200.164 79.1939 199.931 79.4271 199.697 79.8935L199.464 81.2927L199.231 80.8263C198.298 79.4271 195.966 78.7275 193.634 78.7275C188.271 78.7275 183.84 82.6918 182.907 88.2885C182.441 91.0868 183.141 93.652 184.773 95.5175C186.172 97.1499 188.271 97.8495 190.836 97.8495C195.034 97.8495 197.365 95.0511 197.365 95.0511L197.132 96.4503C197.132 96.9167 197.366 97.3831 198.065 97.3831H202.263C202.962 97.3831 203.429 96.9167 203.662 96.2171L206.227 79.8935C206.227 79.6603 205.761 79.1939 205.294 79.1939Z" fill="#1A1A1A"/>
<path d="M210.891 70.5648L206.693 96.6826C206.693 97.1489 206.927 97.6153 207.626 97.6153H211.824C212.523 97.6153 212.99 97.1489 213.223 96.4494L217.187 70.798C217.187 70.3316 216.954 69.8652 216.254 69.8652H211.59C211.357 69.8652 211.124 70.3316 210.891 70.5648Z" fill="#1A1A1A"/>
<path d="M47.6551 102.513L48.3547 97.616H46.7223H38.5605L44.1572 61.9373C44.1572 61.9373 44.1572 61.7041 44.3904 61.7041H44.6236H58.382C62.8127 61.7041 66.0774 62.6369 67.7098 64.5024C68.4094 65.4352 68.8758 66.368 69.109 67.3008C69.3422 68.4667 69.3422 69.6327 69.109 71.2651V72.1978L69.8086 72.6642C70.5082 72.8974 70.9745 73.3638 71.4409 73.8302C72.1405 74.5298 72.6069 75.4626 72.6069 76.6285C72.8401 77.7945 72.8401 79.1937 72.3737 80.826C71.9073 82.6916 71.4409 84.0907 70.7413 85.4899C70.0418 86.6559 69.109 87.5886 68.1762 88.5214C67.2434 89.221 65.8442 89.6874 64.6783 90.1538C63.2791 90.387 61.88 90.6202 60.2476 90.6202H59.0816C58.3821 90.6202 57.6825 90.8534 56.9829 91.3197C56.5165 91.7861 56.0501 92.4857 55.8169 93.1853V93.6517L54.4178 102.28V102.513V102.746C54.4178 102.746 54.4177 102.746 54.1845 102.746H47.6551V102.513Z" fill="#1A1A1A"/>
<path d="M70.7412 71.2646C70.7412 71.4978 70.7412 71.731 70.508 71.9642C68.6425 81.292 62.5795 84.3235 54.6509 84.3235H50.6865C49.7538 84.3235 48.821 85.0231 48.821 85.9559L46.7222 99.0148L46.2559 102.746C46.2559 103.445 46.7222 103.912 47.1886 103.912H54.4177C55.3504 103.912 56.05 103.212 56.05 102.513V102.046L57.4492 93.6513V93.1849C57.6824 92.2521 58.382 91.7857 59.0815 91.7857H60.2475C67.2433 91.7857 72.6068 88.9874 74.0059 80.8256C74.7055 77.3277 74.2392 74.5294 72.6068 72.6638C72.1404 72.1974 71.4408 71.731 70.7412 71.2646Z" fill="#1A1A1A"/>
<path d="M68.876 70.5648C68.6428 70.5648 68.4096 70.3316 67.9432 70.3316C67.71 70.3316 67.2436 70.0984 67.0104 70.0984C65.8444 69.8652 64.6785 69.8652 63.5125 69.8652H52.7856C52.5524 69.8652 52.3192 69.8652 52.086 70.0984C51.6196 70.3316 51.1532 70.798 51.1532 71.2644L48.8213 85.7224V86.1888C49.0545 85.256 49.754 84.5565 50.6868 84.5565H54.6511C62.5797 84.5565 68.6428 81.2917 70.5083 72.1972C70.5083 71.964 70.5083 71.7308 70.7415 71.4976C70.2751 71.2644 69.8087 71.0312 69.3423 70.798C69.1091 70.5648 68.876 70.5648 68.876 70.5648Z" fill="#F8F8F8"/>
<path d="M51.1528 71.2648C51.1528 70.7984 51.6192 70.332 52.0855 70.0988C52.3187 70.0988 52.5519 69.8656 52.7851 69.8656H63.512C64.678 69.8656 66.0772 69.8656 67.01 70.0988C67.2431 70.0988 67.7096 70.0988 67.9427 70.332C68.1759 70.332 68.4091 70.5652 68.8755 70.5652C69.1087 70.5652 69.1087 70.5652 69.3419 70.7984C69.8083 71.0316 70.2747 71.2648 70.7411 71.498C71.2075 68.0001 70.7411 65.6681 68.8755 63.5694C66.7768 61.2375 63.0457 60.3047 58.3818 60.3047H44.6233C43.6906 60.3047 42.7578 61.0043 42.7578 61.937L37.1611 97.8489C37.1611 98.5485 37.6275 99.2481 38.3271 99.2481H46.7221L48.8208 85.7228L51.1528 71.2648Z" fill="#1A1A1A"/>
</g>
</svg>
