<svg width="256" height="166" viewBox="0 0 256 166" fill="none" xmlns="http://www.w3.org/2000/svg">
<g opacity="0.4">
<path fill-rule="evenodd" clip-rule="evenodd" d="M44.1463 75.9026C43.7618 76.8639 43.5695 77.8892 43.3132 78.9145C42.6723 81.9906 42.1597 85.2588 41.4547 88.3348C40.0449 88.3348 38.571 88.3348 37.1611 88.3348C38.7632 77.9533 41.7111 67.828 42.9927 56.6775C44.4026 56.6775 45.8124 56.6775 47.1582 56.6775C46.9659 57.7028 46.7096 58.6641 46.5814 59.6894C46.5814 59.7535 46.4533 59.8176 46.4533 59.9457C48.3758 57.4465 51.3236 55.7162 56.0018 56.2289C60.6158 56.6775 63.1151 60.3303 63.3073 64.6239C63.7559 72.8266 59.3982 80.2603 50.4265 79.6195C47.4786 79.4272 45.2357 78.3378 44.1463 75.9026ZM50.1701 60.3303C46.3892 62.2528 42.7364 71.0963 47.03 74.8773C49.8497 77.3765 54.2715 76.0308 56.1299 73.7238C58.2447 71.0963 60.1672 63.5344 56.963 60.8429C55.8736 59.9457 54.1433 59.6253 52.5412 59.8176C51.3877 59.8817 50.811 60.0098 50.1701 60.3303Z" fill="#1A1A1A"/>
<path fill-rule="evenodd" clip-rule="evenodd" d="M83.1091 79.171C81.7633 79.171 80.4175 79.171 79.0077 79.171C79.1999 77.8893 79.4563 76.6717 79.7126 75.4541C78.495 77.2485 76.3803 79.2992 73.3042 79.6196C68.8825 80.0682 64.8452 77.8252 64.4607 74.1725C64.3325 72.9549 64.3966 70.9683 65.4219 69.4303C67.9853 65.393 74.65 65.1367 81.2506 65.3289C83.2372 58.0234 72.5993 59.1128 68.9465 61.4839C69.1388 60.074 69.4592 58.7283 69.6515 57.3184C76.2521 55.2678 85.1597 55.7804 85.6724 62.8937C85.8647 65.7134 85.0316 68.469 84.5189 71.1605C84.0062 73.788 83.4936 76.3513 83.1091 79.171ZM69.1388 73.3394C69.267 75.1978 71.3176 76.2231 72.9838 76.2231C77.5338 76.2872 79.7126 72.314 80.4175 68.4049C75.2908 68.1486 68.8184 68.7894 69.1388 73.3394Z" fill="#1A1A1A"/>
<path fill-rule="evenodd" clip-rule="evenodd" d="M92.9776 56.7412C93.9388 62.701 95.0924 68.4685 95.9895 74.5565C99.386 68.7249 102.526 62.6369 105.858 56.7412C107.396 56.7412 108.934 56.7412 110.537 56.7412C106.435 64.1749 101.629 72.3136 97.0149 80.1318C95.605 82.567 94.1952 85.8352 92.1445 87.4373C90.3502 88.8472 86.8896 89.1676 84.0059 88.5908C84.0699 87.3092 84.5185 86.3479 84.5826 85.1303C85.1594 85.0662 85.8643 85.4507 86.5692 85.4507C89.7093 85.4507 91.4396 82.567 92.5931 80.324C91.2473 72.5699 89.7734 64.8798 88.4276 57.0616C88.2995 56.9335 88.3636 56.8694 88.4276 56.7412C89.9656 56.7412 91.5037 56.7412 92.9776 56.7412Z" fill="#1A1A1A"/>
<path fill-rule="evenodd" clip-rule="evenodd" d="M112.395 92.3077C111.434 97.7548 110.216 102.882 109.255 108.329C106.243 108.329 103.231 108.329 100.155 108.329C101.565 101.664 102.783 95.0633 104.128 88.4627C105.474 81.9261 107.076 75.3896 107.845 68.4685C110.281 68.2763 113.549 68.2763 115.984 68.4685C115.92 70.0065 115.535 71.2882 115.407 72.7621C117.778 70.391 120.342 67.2509 125.789 67.7636C130.98 68.2763 133.863 72.634 134.248 78.1452C134.953 87.6296 130.339 96.9217 122.008 97.5625C116.817 97.9471 114.382 95.576 112.395 92.3077ZM116.048 78.1452C113.933 81.1571 113.228 86.9247 115.92 89.1676C117.586 90.5774 120.662 89.8725 122.072 88.719C123.866 87.2451 125.148 84.4254 125.084 80.9008C125.02 77.6966 123.61 75.0051 120.213 75.4537C118.227 75.71 117.009 76.7353 116.048 78.1452Z" fill="#1A1A1A"/>
<path fill-rule="evenodd" clip-rule="evenodd" d="M159.177 96.9863C156.806 96.9222 154.114 97.1145 151.935 96.8582C152.192 95.5765 152.192 93.9744 152.384 92.6927C151.679 93.3976 151.166 94.423 150.269 95.2561C147.321 97.9476 140.721 98.5243 137.452 95.8328C133.928 92.885 134.505 85.8358 137.452 82.8238C140.849 79.2992 147.257 78.402 153.858 79.107C154.499 76.4154 152.704 74.7493 150.461 74.4288C147.193 73.9803 142.836 75.3901 140.913 76.5436C141.298 74.2366 141.426 71.7373 141.874 69.4303C144.181 68.5972 146.36 67.9564 149.116 67.8282C156.742 67.3156 161.997 69.8789 162.509 76.4154C162.766 79.876 161.74 83.4647 160.971 86.8611C160.266 90.1934 159.754 93.5899 159.177 96.9863ZM150.013 84.1696C147.257 84.2337 144.245 85.1308 143.605 87.1815C143.092 88.9759 144.374 90.642 145.719 90.8984C149.949 91.7955 152.833 87.6301 153.153 84.2977C152.192 84.1055 150.782 84.1696 150.013 84.1696Z" fill="#1A1A1A"/>
<path fill-rule="evenodd" clip-rule="evenodd" d="M187.117 69.4306C186.668 71.7376 185.835 73.6602 185.387 75.9672C183.144 75.1982 180.452 74.0447 176.927 74.4292C175.518 74.6214 174.108 75.3263 174.108 76.7362C174.172 78.4664 176.799 79.1073 178.401 79.7481C180.644 80.7094 183.336 81.991 184.425 83.9136C186.284 87.2459 184.425 92.1163 182.439 94.167C180.773 95.8972 177.632 97.3071 174.428 97.5634C170.263 97.8838 165.905 97.1148 162.316 96.1535C162.829 93.7824 163.406 91.6036 164.047 89.4248C166.418 90.386 169.109 91.2832 172.762 90.9628C174.492 90.7705 176.415 90.1938 176.158 88.1431C175.966 86.4769 173.467 85.9001 171.609 85.1311C168.148 83.7213 165.585 81.927 165.585 77.2488C165.585 67.6363 178.914 66.0342 187.117 69.4306Z" fill="#1A1A1A"/>
<path fill-rule="evenodd" clip-rule="evenodd" d="M209.803 69.4305C209.29 71.6734 208.585 73.7882 207.945 75.967C205.83 75.134 203.074 74.0445 199.55 74.429C198.14 74.5572 196.73 75.2621 196.73 76.7361C196.794 78.5304 199.998 79.4917 201.472 80.1325C204.484 81.4142 207.368 82.824 207.752 86.2845C208.137 89.681 206.727 92.4366 204.74 94.295C202.882 96.0893 200.126 97.3069 197.05 97.5633C192.821 97.8837 188.719 97.1147 184.938 96.1534C185.323 93.7182 186.092 91.7316 186.541 89.4246C188.271 89.9373 189.937 90.7704 191.988 90.9626C194.871 91.219 198.781 91.0267 198.716 88.5275C198.652 85.8359 193.077 85.2592 190.898 83.5289C188.527 81.6705 187.053 77.1206 188.912 73.4037C191.988 67.6362 202.562 66.3545 209.803 69.4305Z" fill="#1A1A1A"/>
<path d="M213.199 72.3783H212.046L212.11 71.9297H214.93L214.866 72.3783H213.712L213.071 75.9029H212.559L213.199 72.3783Z" fill="#1A1A1A"/>
<path d="M217.942 75.9029L218.198 73.7881C218.262 73.4036 218.326 72.8269 218.391 72.4424C218.198 72.8269 218.006 73.3395 217.75 73.724L216.596 75.9029H216.212L215.891 73.7881C215.827 73.3395 215.763 72.8909 215.763 72.4424C215.699 72.8269 215.571 73.4036 215.443 73.7881L214.93 75.9029H214.481L215.507 71.9297H216.148L216.468 74.1726C216.532 74.493 216.532 74.8775 216.532 75.198C216.66 74.8775 216.853 74.5571 216.981 74.2367L218.198 71.9297H218.839L218.326 75.9029H217.942Z" fill="#1A1A1A"/>
</g>
</svg>
