<svg width="257" height="166" viewBox="0 0 257 166" fill="none" xmlns="http://www.w3.org/2000/svg">
<g opacity="0.3">
<path d="M29.4567 71.2882C28.6096 71.7118 27.9036 72.4177 27.6213 73.1237C27.4801 73.5472 27.3389 77.3593 27.3389 84.2775V94.7254H32.2804V88.0896H38.7751L40.4694 91.3369L42.1636 94.5842H44.9874C46.5404 94.5842 47.8111 94.5842 47.8111 94.4431C47.8111 94.3019 46.964 92.6076 45.8345 90.631L43.8579 86.9601L44.4226 86.6777C47.2464 84.8423 48.5171 81.0302 47.8111 76.7946C47.3876 74.2532 46.1169 72.4177 44.1402 71.5706C43.0107 71.147 42.8695 71.0059 36.5161 71.0059C31.5745 71.0059 30.0214 71.0059 29.4567 71.2882ZM41.7401 76.0886C42.0224 76.2298 42.446 76.6534 42.5872 77.0769C43.0108 78.0653 43.0107 80.4654 42.7283 81.1714C41.8812 82.8656 40.7517 83.2892 35.9513 83.2892H32.4216V75.8062H36.7985C39.1987 75.8062 41.4577 75.9474 41.7401 76.0886ZM55.0117 71.147C52.8939 71.853 51.3408 73.2649 50.7761 75.3827C50.2113 77.0769 49.6466 80.889 49.6466 82.8656C49.6466 84.7011 50.2113 88.372 50.6349 89.925C51.482 92.4664 52.7527 93.8783 55.1529 94.4431C56.2824 94.7254 57.2707 94.7254 60.9416 94.7254C65.0361 94.7254 65.4596 94.5842 66.5891 94.1607C69.5541 92.89 70.8248 89.3603 70.8248 82.8656C70.8248 75.9474 69.4129 72.5589 66.3067 71.4294C65.1772 71.0059 64.7537 71.0059 60.2357 71.0059C57.8355 71.0059 55.4353 71.147 55.0117 71.147ZM64.8949 76.371C66.3067 78.3476 66.3067 87.9484 64.8949 89.3603C64.4713 89.7839 56.2824 89.7839 56 89.3603C55.0117 88.0896 54.5881 81.1714 55.4353 77.9241C55.7176 76.6534 55.8588 76.2298 56.2824 76.0886C56.5648 75.9474 58.5414 75.9474 60.8004 75.9474C64.1889 75.9474 64.7537 75.9474 64.8949 76.371ZM75.6252 71.4294C75.2016 71.7118 74.6368 72.2765 74.3545 72.7001C73.9309 73.406 73.9309 73.8296 73.7897 82.3009C73.7897 88.2308 73.7897 91.4781 73.9309 92.0429C74.3544 93.3136 75.2016 94.3019 76.4723 94.5842C77.743 94.8666 87.2026 94.8666 88.8968 94.5842C92.1441 94.0195 93.8384 92.184 94.1208 88.6544C94.262 86.6777 93.9796 85.2658 93.1325 83.854L92.5677 82.8656L93.4148 81.3126C94.1208 79.9007 94.2619 79.7595 94.2619 77.6417C94.2619 75.9474 94.1208 75.2415 93.8384 74.3944C93.2736 73.1237 92.4265 72.2765 91.1558 71.5706L90.0263 71.0059H83.3905C76.4723 71.0059 76.4723 71.0059 75.6252 71.4294ZM88.7556 76.0886C89.038 76.371 89.1792 77.7829 89.038 78.4888C88.8968 78.9124 88.6144 79.3359 88.3321 79.7595C87.7673 80.3243 87.7673 80.3243 83.3905 80.3243H79.0137V75.8062H83.814C86.3554 75.9474 88.6144 76.0886 88.7556 76.0886ZM87.7673 85.5482C88.6145 85.8306 89.038 86.8189 89.038 87.9484C89.038 88.6544 88.8968 89.0779 88.6144 89.2191C88.332 89.5015 87.0614 89.5015 83.5317 89.5015H78.7313V84.9835L82.9669 85.1247C85.3671 85.2658 87.485 85.407 87.7673 85.5482ZM101.18 71.4294C99.0624 72.2765 98.074 73.6884 97.2269 76.7946C96.8033 78.3476 96.8033 79.1948 96.8033 82.8656C96.8033 86.6777 96.8033 87.1013 97.3681 89.0779C98.074 91.4781 98.6388 92.4664 99.9095 93.4547C101.463 94.5842 101.886 94.5842 107.251 94.5842C112.616 94.5842 113.181 94.4431 114.593 93.4547C115.864 92.6076 116.428 91.4781 117.134 89.0779C117.699 87.1013 117.699 86.6777 117.699 82.8656C117.699 79.3359 117.699 78.4888 117.276 76.7946C116.428 73.5472 115.44 72.1354 113.322 71.4294C112.193 71.0059 111.769 71.0059 107.251 71.0059C102.733 71.0059 102.168 71.0059 101.18 71.4294ZM111.346 76.0886C111.91 76.371 112.193 76.9358 112.616 79.3359C113.181 82.3009 112.616 87.8072 111.769 89.0779C111.487 89.6427 111.487 89.6427 107.251 89.6427C102.31 89.6427 102.592 89.7838 102.027 86.9601C101.18 83.0068 101.886 76.5122 103.016 76.0886C103.722 75.8062 110.781 75.8062 111.346 76.0886Z" fill="#1A1A1A"/>
<path d="M121.794 71.5703L121.088 72.2763V93.3133L121.653 93.878C122.217 94.4428 122.5 94.4428 123.488 94.4428C124.476 94.4428 124.759 94.3016 125.182 94.0192C125.888 93.1721 126.029 92.325 126.029 88.6541V85.1244H129.136L130.689 86.5363C133.795 89.2188 134.924 90.6307 134.924 92.1838C134.924 93.0309 135.066 93.3133 135.63 93.878C136.336 94.584 136.477 94.584 137.466 94.584C138.313 94.584 138.595 94.4428 139.16 94.0192C139.866 93.4545 139.866 93.3133 139.866 91.7602C139.866 90.4895 139.725 89.9248 139.16 88.7953C138.454 87.2422 136.195 84.7008 134.924 83.5713L134.077 82.8654L135.489 81.5947C137.183 80.0416 138.736 78.065 139.442 76.5119C139.866 75.6648 140.007 74.9589 140.007 73.8294C140.007 72.2763 140.007 72.2763 139.301 71.5703C138.736 71.0056 138.454 71.0056 137.325 71.0056C136.054 71.0056 135.913 71.0056 135.489 71.5703C135.207 71.9939 135.066 72.4175 135.066 73.1234C135.066 73.6882 134.924 74.3941 134.783 74.6765C134.36 75.5236 132.807 77.3591 130.83 79.0533L129.277 80.324H126.171V76.7943C126.171 74.9589 126.03 72.9822 125.888 72.5587C125.606 71.4292 124.759 70.8644 123.488 70.8644C122.5 71.0056 122.359 71.0056 121.794 71.5703ZM148.761 71.288C145.937 72.1351 144.384 74.2529 143.254 78.3474C142.69 80.1828 142.69 80.8887 142.548 86.2539C142.407 92.6073 142.548 93.3133 143.537 94.0192C144.243 94.584 146.078 94.584 146.643 94.0192C147.349 93.4545 147.631 92.7485 147.631 90.6307V88.5129H158.644V90.9131C158.644 93.1721 158.644 93.3133 159.209 93.878C159.773 94.4428 160.056 94.4428 161.044 94.4428C162.174 94.4428 162.315 94.4428 162.88 93.7369L163.444 93.0309V86.2539C163.303 79.9004 163.303 79.3357 162.88 77.9238C161.891 74.5353 160.338 72.4175 158.362 71.5703C157.232 71.0056 156.95 71.0056 153.42 71.0056C150.737 71.0056 149.325 71.0056 148.761 71.288ZM156.103 76.0884C157.232 76.5119 158.22 79.0533 158.503 82.3006L158.644 83.7125H147.631L147.772 82.0183C148.055 79.0533 149.184 76.2296 150.314 75.9472C151.302 75.806 155.397 75.9472 156.103 76.0884ZM170.221 71.288C168.103 71.9939 166.974 72.9822 166.268 74.8177C165.844 75.806 165.844 76.3707 165.844 78.065C165.844 81.4535 166.833 83.4301 169.233 84.5596C170.221 84.9832 170.504 85.1244 174.739 85.1244C179.116 85.2656 179.257 85.2656 179.681 85.6891C180.246 86.2539 180.387 88.0893 179.822 88.9365L179.399 89.5012H173.751C168.386 89.5012 167.962 89.5012 167.539 89.9248C166.409 90.9131 166.268 92.8897 167.398 93.878L168.103 94.4428H174.316C177.704 94.4428 180.81 94.3016 181.234 94.1604C182.363 93.878 183.634 92.6073 184.481 91.0543C185.187 89.7836 185.187 89.5012 185.187 87.2422C185.187 85.1244 185.187 84.842 184.622 83.7125C183.917 82.1594 182.928 81.1711 181.94 80.6064C181.234 80.324 180.528 80.1828 176.292 80.0416C170.645 79.9004 170.786 80.0416 170.786 77.7826C170.786 75.5236 170.504 75.6648 177.281 75.5236L183.069 75.3824L183.634 74.8177C184.199 74.2529 184.199 74.1117 184.34 72.4175L184.481 70.582H177.845C173.045 71.0056 170.786 71.1468 170.221 71.288ZM191.258 71.288C190.835 71.4292 190.129 71.7115 189.705 71.8527C187.023 73.2646 185.752 78.2062 187.446 81.5947C188.152 83.0066 188.858 83.8537 190.129 84.5596C191.117 85.1244 191.258 85.1244 195.494 85.2656C197.894 85.2656 200.012 85.4068 200.294 85.5479C201 85.8303 201.424 86.9598 201.141 88.2305C200.859 89.7836 201.141 89.7836 194.647 89.7836H188.858L188.293 90.3483C187.729 90.9131 187.729 91.1955 187.729 92.1838C187.729 93.1721 187.87 93.4545 188.293 94.0192L188.858 94.584H195.212C202.412 94.584 202.553 94.584 203.965 93.1721C205.236 91.9014 205.801 90.4895 205.942 87.9482C206.083 85.1244 205.518 83.4301 203.965 81.8771C203.259 81.1711 202.553 80.7476 201.989 80.6064C201.565 80.4652 199.447 80.324 197.188 80.324C194.929 80.324 192.953 80.324 192.529 80.1828C191.823 80.0416 191.4 79.3357 191.4 78.065C191.4 76.7943 191.682 76.0884 192.529 75.9472C192.953 75.9472 195.494 75.806 198.318 75.806C204.954 75.806 205.095 75.6648 205.095 72.5587V71.0056H198.459C194.082 71.0056 191.823 71.1468 191.258 71.288ZM214.554 71.4292C213.99 71.7115 213.142 72.1351 212.719 72.4175C211.025 73.6882 209.472 77.0767 209.048 80.6064C208.766 83.0066 208.766 92.4662 209.048 93.3133C209.33 94.1604 210.177 94.584 211.448 94.584C212.154 94.584 212.578 94.4428 213.142 94.0192L213.848 93.4545V91.0543L213.99 88.6541H224.72L224.861 91.0543V93.4545L225.567 94.0192C226.132 94.584 226.414 94.584 227.261 94.584C228.108 94.584 228.391 94.4428 228.956 94.0192L229.661 93.4545V86.8186C229.661 80.7476 229.661 80.0416 229.238 78.4886C228.25 74.9589 226.838 72.841 224.861 71.8527C223.59 71.288 223.59 71.288 219.637 71.1468C216.107 71.0056 215.543 71.0056 214.554 71.4292ZM223.026 76.6531C223.873 77.6414 224.579 79.7592 224.579 81.8771L224.72 83.5713H213.848V82.3006C213.848 79.6181 214.978 76.5119 216.249 75.9472C216.531 75.806 217.943 75.806 219.637 75.806H222.461L223.026 76.6531Z" fill="#1A1A1A"/>
</g>
</svg>
