<svg width="257" height="166" viewBox="0 0 257 166" fill="none" xmlns="http://www.w3.org/2000/svg">
<g opacity="0.3">
<path d="M153.389 62.0931C153.389 58.8055 155.97 56.1387 159.147 56.1387C162.331 56.1387 164.91 58.8055 164.91 62.0931C164.91 65.3827 162.331 68.0437 159.147 68.0437C155.97 68.0437 153.389 65.3827 153.389 62.0931Z" fill="#1A1A1A"/>
<path d="M169.946 61.0083L181.626 58.8482V105.19H169.946V61.0083Z" fill="#1A1A1A"/>
<path d="M187.006 61.0083V105.19H198.694V58.8482L187.006 61.0083Z" fill="#1A1A1A"/>
<path d="M153.308 71.2946V105.19H164.994V71.2946H153.308Z" fill="#1A1A1A"/>
<path d="M130.434 86.1218C130.434 76.1662 135.92 71.1574 146.716 70.7977C146.716 70.7977 148.667 70.7203 149.818 70.9737V80.881C142.973 81.1247 142.217 83.6793 142.217 89.6377V105.19H130.434V86.1218Z" fill="#1A1A1A"/>
<path d="M114.953 71.4157C114.535 72.5506 112.631 77.7158 108.358 83.0566V58.8482L96.2977 61.3139V105.19H108.358V91.6257C111.85 97.0406 113.575 105.19 113.575 105.19H128.018C126.59 99.0519 120.341 87.7367 120.341 87.7367C125.952 80.384 128.413 72.5537 128.806 71.256H115.013C114.998 71.2942 114.978 71.3479 114.953 71.4157Z" fill="#1A1A1A"/>
<path d="M71.177 72.5788C71.177 75.7601 74.5981 75.9902 76.0748 76.0888C86.9052 76.8392 93.36 82.3179 93.36 90.7477C93.36 98.1855 87.5883 105.687 74.7123 105.687C68.7422 105.687 63.6479 105.08 59.1301 103.852V93.0259C62.147 94.308 67.1177 95.654 72.2382 95.654C76.9113 95.654 79.6905 94.0566 79.6905 91.3414C79.6905 88.0657 76.3201 87.8523 75.0276 87.7704L75.0136 87.7695C59.9311 86.7078 58.3066 77.487 58.3066 73.5728C58.3066 66.7752 62.9742 58.8482 76.1477 58.8482C83.7891 58.8482 87.9083 60.0801 91.4567 61.3622L91.6345 61.4183V71.9329L91.5016 71.8942C90.0774 71.2715 88.4043 70.6604 88.4043 70.6604C85.3986 69.7302 81.1952 68.74 77.9463 68.74C76.0991 68.74 71.177 68.74 71.177 72.5788Z" fill="#1A1A1A"/>
</g>
</svg>
