<svg width="257" height="166" viewBox="0 0 257 166" fill="none" xmlns="http://www.w3.org/2000/svg">
<g opacity="0.3">
<path d="M189.783 110.181V112.676H192.493V114.116H189.783V119.727C189.783 121.016 190.15 121.748 191.202 121.748C191.719 121.748 192.02 121.705 192.298 121.619L192.385 123.06C192.019 123.19 191.437 123.318 190.707 123.318C189.824 123.318 189.116 123.017 188.663 122.522C188.146 121.941 187.931 121.016 187.931 119.789V114.114H186.319V112.674H187.931V110.737L189.781 110.179L189.783 110.181ZM161.952 112.434C165.372 112.434 166.255 115.402 166.255 117.312C166.255 117.7 166.233 117.98 166.19 118.195H158.878V118.197C158.92 120.757 160.534 121.81 162.449 121.81C163.803 121.81 164.642 121.572 165.33 121.272L165.674 122.626C165.006 122.928 163.845 123.293 162.189 123.293C158.985 123.293 157.071 121.164 157.071 118.022C157.071 114.885 158.92 112.434 161.952 112.434ZM171.027 114.327H171.07C171.738 113.167 172.941 112.435 174.619 112.435C177.222 112.435 179.028 114.585 179.028 117.724C179.028 121.442 176.662 123.292 174.339 123.292C172.834 123.292 171.628 122.711 170.833 121.355H170.79L170.682 123.055H169.07C169.113 122.345 169.155 121.291 169.155 120.366V107.789H171.027V114.327ZM146.934 108.479C149.619 108.48 151.536 109.125 152.804 110.285C154.115 111.466 154.869 113.144 154.869 115.488C154.869 117.853 154.115 119.788 152.783 121.121C151.407 122.475 149.17 123.206 146.352 123.206C144.994 123.206 143.898 123.142 142.952 123.035V108.802C144.095 108.609 145.449 108.479 146.934 108.479ZM183.836 123.06H181.942V112.652H183.836V123.06ZM173.997 113.915C172.726 113.915 171.523 114.82 171.135 116.237C171.07 116.475 171.027 116.733 171.027 117.034V118.884C171.027 119.119 171.048 119.357 171.112 119.57C171.458 120.881 172.575 121.786 173.953 121.786C175.954 121.786 177.113 120.173 177.113 117.786C177.113 115.701 176.039 113.915 173.997 113.915ZM147.018 109.962C146.052 109.962 145.32 110.049 144.825 110.155V121.615C145.298 121.68 145.986 121.702 146.716 121.702C150.739 121.702 152.89 119.466 152.89 115.553C152.912 112.134 150.977 109.962 147.018 109.962ZM161.801 113.791C159.866 113.791 159.047 115.533 158.896 116.844H164.427C164.449 115.659 163.931 113.791 161.801 113.791ZM182.89 108.546C183.58 108.546 184.051 109.063 184.051 109.729C184.051 110.374 183.598 110.889 182.848 110.889C182.158 110.889 181.709 110.372 181.709 109.729C181.709 109.085 182.182 108.546 182.89 108.546ZM144.704 56.1758C147.876 56.1758 151.372 56.8266 154.55 58.123L152.643 67.1875C149.465 65.5712 145.657 64.9206 142.161 65.2461C139.937 65.2462 138.03 66.5422 137.712 68.8096C137.712 73.6644 152.643 74.3104 152.643 85.3223C152.642 94.0664 145.339 99.8921 133.587 99.5723C129.773 99.5723 125.647 98.9211 121.834 97.3047L123.741 88.2344C127.231 89.8563 131.044 90.8281 134.857 90.8281C138.03 90.8281 141.208 89.5311 141.208 86.6182C141.526 84.6763 139.937 83.3794 135.812 81.4375C131.998 79.4899 126.596 76.2576 126.596 70.1006C126.596 62.0073 134.223 56.1758 144.704 56.1758ZM76.7275 57.1533C79.2697 57.1534 81.1762 59.1006 81.4941 61.3623L85.9434 85.6533L97.373 57.1533H108.49L91.3398 99.2529H79.9053L71.3301 65.5771C70.923 64.0283 70.0591 62.659 68.7881 62.0137C65.6158 60.3917 62.1201 59.1003 58.3066 58.4492V57.1533H76.7275ZM114.844 99.2529H104.044L112.937 57.1533H123.736L114.844 99.2529ZM190.431 99.2529H180.585L179.313 93.1016H165.654L163.436 99.2529H152.318L168.196 60.3916C168.832 58.4498 170.739 57.1535 172.646 57.1533H181.856L190.431 99.2529ZM168.517 84.3535H177.409L174.237 68.4863L168.517 84.3535Z" fill="#1A1A1A"/>
</g>
</svg>
